<svg width="678" height="642" viewBox="0 0 678 642" fill="none" xmlns="http://www.w3.org/2000/svg">
<path d="M249.437 618.722C247.339 616.924 242.68 611.23 246.275 604.653C247.594 602.241 250.396 601.042 252.928 599.978C255.533 599.098 257.989 597.825 260.21 596.202C264.165 592.831 265.244 587.213 267.881 582.718C270.877 577.579 276.496 573.728 282.444 573.998C289.232 574.297 294.91 579.856 297.427 586.179C299.944 592.502 300.094 599.544 300.154 606.376C300.154 610.167 300.004 614.422 297.233 616.984C294.461 619.546 290.82 619.366 287.359 619.261L250.201 618.108" fill="#F5F5F5"/>
<path d="M320.486 516.553H222.782L240.387 621.509C240.755 623.694 241.734 625.73 243.211 627.382C244.688 629.034 246.602 630.234 248.733 630.843L249.062 630.933C249.362 631.008 249.647 631.113 249.946 631.158C250.598 631.291 251.259 631.371 251.924 631.398V631.487L252.404 631.413H295.959C296.759 631.417 297.558 631.336 298.341 631.173C300.885 630.783 303.229 629.57 305.016 627.718C306.802 625.867 307.932 623.48 308.23 620.924L316.711 548.617L317.1 545.74L320.456 517.092L320.486 516.553ZM302.057 583.497H292.034L293.037 553.037H304.664L302.057 583.497ZM305.638 553.037H315.242L311.661 583.497H303.031L305.638 553.037ZM276.991 617.269L276.376 590.809H290.835L289.951 617.269H276.991ZM261.378 590.809H275.402L276.017 617.269H263.431L261.378 590.809ZM262.457 617.269H250.696C249.587 610.122 248.133 600.787 246.545 590.809H260.404L262.457 617.269ZM260.869 583.497L258.502 553.037H274.593L275.298 583.497H260.869ZM276.271 583.497L275.567 553.037H292.138L291.12 583.497H276.271ZM275.402 545.74L274.758 517.527H293.307L292.333 545.74H275.402ZM274.429 545.74H257.872L255.685 517.527H273.664L274.429 545.74ZM256.958 545.74H239.458C238.829 541.844 238.245 538.159 237.72 534.832C235.892 523.43 235.218 519.145 234.829 517.527H254.711L256.958 545.74ZM257.528 553.037L259.895 583.497H245.466C244.987 580.41 244.493 577.279 243.968 574.148C242.829 566.956 241.706 559.779 240.642 553.037H257.528ZM244.388 583.497H234.963L229.854 553.037H239.593C241.106 562.446 242.77 572.934 244.388 583.497ZM245.541 590.809C247.04 599.963 248.388 608.983 249.692 617.269H240.627L236.132 590.809H245.541ZM290.88 617.269L291.764 590.809H301.413L299.15 617.269H290.88ZM293.262 545.74L294.191 517.527H307.676L305.278 545.74H293.262ZM233.9 517.527C234.274 519.565 236.057 530.667 238.394 545.74H228.656L223.936 517.527H233.9ZM307.691 617.269H300.199L302.447 590.809H310.852L307.691 617.269ZM316.081 545.74H306.237L308.65 517.527H319.392L316.081 545.74Z" fill="#E0E0E0"/>
<path d="M573.098 43.8053L423.514 69.1593L440.605 169.995L590.19 144.641L573.098 43.8053Z" fill="#EBEBEB"/>
<path d="M573.114 43.8402C572.771 44.4021 572.38 44.9334 571.945 45.4284L568.394 49.7734L555.149 65.6404L510.935 117.781L510.575 118.216L510.081 117.946L508.882 117.272L448.381 83.5301L430.176 73.1619L425.247 70.2851C424.655 69.9732 424.093 69.607 423.569 69.1914C424.197 69.4152 424.804 69.6961 425.382 70.0304L430.431 72.6824L448.905 82.676L509.586 116.073L510.77 116.732L509.916 116.897L554.445 65.0111L568.02 49.4288L571.765 45.2486C572.171 44.7393 572.623 44.2679 573.114 43.8402Z" fill="#FAFAFA"/>
<path d="M440.665 170.027C440.335 169.832 449.235 154.1 460.547 134.907C471.859 115.714 481.298 100.281 481.628 100.446C481.958 100.611 473.058 116.358 461.746 135.566C450.434 154.774 440.919 170.222 440.665 170.027Z" fill="#FAFAFA"/>
<path d="M531.087 90.8118C531.341 90.5271 544.781 102.379 561.053 117.257C577.324 132.135 590.494 144.391 590.194 144.75C589.895 145.11 576.5 133.199 560.229 118.321C543.957 103.442 530.832 91.0665 531.087 90.8118Z" fill="#FAFAFA"/>
<path d="M117.73 313.799L41.8105 320.548L46.3598 371.722L122.279 364.974L117.73 313.799Z" fill="#F5F5F5"/>
<path d="M117.706 313.818C117.525 314.09 117.308 314.337 117.062 314.553L115.114 316.605L107.848 324.022L83.6352 348.369L83.4404 348.564L83.2007 348.414L82.6313 348.025L53.6842 328.726L44.9492 322.733L42.5968 321.1C42.3151 320.918 42.0495 320.713 41.8027 320.486C42.1066 320.624 42.3975 320.79 42.6717 320.98L45.099 322.479L53.9539 328.217L83.0209 347.35L83.5903 347.725H83.1557L107.503 323.527L114.995 316.261L117.032 314.313C117.245 314.132 117.47 313.967 117.706 313.818Z" fill="#E0E0E0"/>
<path d="M46.3426 371.728C46.1928 371.623 51.272 364.101 57.6997 354.932C64.1274 345.762 69.4763 338.45 69.6861 338.525C69.8958 338.6 64.7567 346.152 58.329 355.321C51.9013 364.491 46.4924 371.833 46.3426 371.728Z" fill="#E0E0E0"/>
<path d="M94.7976 335.649C94.9475 335.514 101.21 341.986 108.777 350.077C116.343 358.168 122.396 364.85 122.261 364.985C122.127 365.12 115.864 358.647 108.282 350.557C100.701 342.466 94.6628 335.783 94.7976 335.649Z" fill="#E0E0E0"/>
<path d="M657.049 258.621C657.049 258.621 657.049 258.217 657.228 257.467C657.408 256.718 657.543 255.595 657.783 254.171C658.277 251.264 659.011 247.054 659.94 241.66C661.843 230.873 664.555 215.425 667.866 196.622L668.106 196.966L577.908 180.874L578.343 180.575C574.357 202.69 570.582 223.696 567.196 242.514L566.926 242.125L631.832 253.931L650.426 257.348L655.37 258.277L656.644 258.531L657.093 258.636H656.674L655.43 258.441L650.546 257.602L632.042 254.381L566.851 242.859H566.506V242.514C569.878 223.696 573.623 202.675 577.579 180.56L577.654 180.2H578.028L668.196 196.442H668.495V196.741L660.24 241.915C659.251 247.264 658.472 251.444 657.932 254.321C657.663 255.714 657.468 256.793 657.318 257.557C657.168 258.321 657.049 258.621 657.049 258.621Z" fill="#E0E0E0"/>
<path d="M668.151 196.681C667.839 196.966 667.497 197.218 667.132 197.431L664.135 199.438L652.943 206.72L615.815 230.483C614.797 230.303 615.531 230.483 615.291 230.378V230.303L615.171 230.138L614.931 229.824L614.437 229.18L613.478 227.906C612.834 227.052 612.204 226.213 611.56 225.389L607.829 220.444L600.787 211.11L588.891 195.273L580.92 184.56L578.777 181.564C578.52 181.23 578.284 180.88 578.073 180.515C578.374 180.811 578.65 181.131 578.897 181.474L581.145 184.321L589.31 194.899L601.297 210.631L608.384 219.935L612.115 224.864L614.032 227.397L614.991 228.67L615.486 229.299L615.725 229.629L615.845 229.779V229.869C615.636 229.869 616.355 229.974 615.366 229.869L652.584 206.286L663.911 199.214L666.997 197.311C667.761 196.876 668.151 196.667 668.151 196.681Z" fill="#E0E0E0"/>
<path d="M603.035 213.582C603.169 213.747 595.139 220.4 585.055 228.43C574.972 236.461 566.761 242.844 566.641 242.679C566.521 242.514 574.537 235.877 584.621 227.846C594.704 219.815 602.9 213.418 603.035 213.582Z" fill="#E0E0E0"/>
<path d="M657.498 259.46C657.318 259.565 652.089 250.336 645.826 238.874C639.563 227.412 634.634 218.032 634.814 217.897C634.994 217.763 640.223 227.022 646.486 238.484C652.748 249.946 657.678 259.355 657.498 259.46Z" fill="#E0E0E0"/>
<path d="M256.764 375.369V392.779H181.849C179.54 392.779 177.326 391.862 175.693 390.229C174.061 388.597 173.144 386.382 173.144 384.074C173.144 381.765 174.061 379.551 175.693 377.918C177.326 376.286 179.54 375.369 181.849 375.369" fill="#E0E0E0"/>
<path d="M231.967 379.009H256.763V389.123H231.967C230.663 389.123 229.413 388.605 228.492 387.683C227.57 386.762 227.052 385.512 227.052 384.208V383.909C227.056 382.608 227.576 381.362 228.497 380.443C229.418 379.525 230.666 379.009 231.967 379.009Z" fill="#FAFAFA"/>
<path d="M256.764 357.943V375.369H181.849C179.54 375.369 177.326 374.451 175.693 372.819C174.061 371.186 173.144 368.972 173.144 366.663C173.144 364.353 174.06 362.138 175.692 360.503C177.324 358.868 179.539 357.947 181.849 357.943H256.764Z" fill="#F5F5F5"/>
<path d="M231.967 361.599H256.763V371.713H231.967C230.663 371.713 229.413 371.195 228.492 370.273C227.57 369.352 227.052 368.102 227.052 366.798V366.499C227.056 365.198 227.576 363.952 228.497 363.033C229.418 362.115 230.666 361.599 231.967 361.599Z" fill="#E0E0E0"/>
<path d="M202.69 330.015L190.809 357.943H198.45L203.739 343.035L202.69 330.015Z" fill="#E0E0E0"/>
<path d="M239.203 304.739L243.803 357.943H204.937L200.667 304.739H239.203Z" fill="#EBEBEB"/>
<path d="M235.413 308.964L239.428 353.538L210.256 353.913L206.316 308.709L235.413 308.964Z" fill="#FAFAFA"/>
<path d="M229.225 315.137L231.502 345.807H215.95L213.208 315.137H229.225Z" fill="#E0E0E0"/>
<path d="M677.56 631.488C677.56 631.712 525.872 631.877 338.795 631.877C151.718 631.877 0 631.697 0 631.488C0 631.278 151.658 631.098 338.795 631.098C525.932 631.098 677.56 631.278 677.56 631.488Z" fill="#263238"/>
<path d="M437.308 0.359589H33.1123V274.548H437.308V0.359589Z" fill="#FAFAFA"/>
<path d="M439.166 274.758H34.3408V0.149841H439.166V274.758ZM438.866 0.359602H34.6255V274.548H438.851" fill="#FAFAFA"/>
<path d="M439.166 274.758H34.3408V0.149841H439.166V274.758ZM438.866 0.359602H34.6255V274.548H438.851" fill="#FAFAFA"/>
<path d="M439.001 0.314606H34.5059V27.4937H439.001V0.314606Z" fill="#1A8CF7"/>
<g style="mix-blend-mode:multiply">
<path d="M439.001 232.596H34.5059V274.758H439.001V232.596Z" fill="#EBEBEB"/>
</g>
<path d="M111.279 253.002H114.62L115.669 255.19H116.388L113.047 248.208H112.852L109.541 255.19H110.26L111.279 253.002ZM112.942 249.526L114.305 252.343H111.593L112.942 249.526Z" fill="#263238"/>
<path d="M116.882 256.673H108.971V257.228H116.882V256.673Z" fill="#263238"/>
<path d="M62.1345 247.818H61.5951C60.8399 247.875 60.1343 248.216 59.62 248.772C59.1058 249.328 58.8211 250.058 58.8233 250.815C59.1945 253.025 60.1517 255.094 61.5951 256.808C61.5951 256.808 61.8049 257.168 62.1345 256.808C63.5842 255.098 64.5422 253.027 64.9063 250.815C64.9085 250.058 64.6238 249.328 64.1096 248.772C63.5953 248.216 62.8897 247.875 62.1345 247.818ZM61.8648 252.628C61.5388 252.628 61.2202 252.531 60.9491 252.35C60.6781 252.169 60.4669 251.912 60.3421 251.611C60.2174 251.309 60.1847 250.978 60.2483 250.658C60.3119 250.339 60.4689 250.045 60.6994 249.814C60.9299 249.584 61.2236 249.427 61.5433 249.363C61.863 249.3 62.1944 249.332 62.4955 249.457C62.7967 249.582 63.0541 249.793 63.2352 250.064C63.4163 250.335 63.5129 250.654 63.5129 250.98C63.5149 251.197 63.4737 251.412 63.3915 251.613C63.3094 251.814 63.1881 251.996 63.0347 252.15C62.8812 252.303 62.6987 252.424 62.4979 252.507C62.297 252.589 62.0818 252.63 61.8648 252.628Z" fill="#263238"/>
<path d="M99.1724 254.785C99.1724 255.235 98.994 255.665 98.6765 255.983C98.359 256.3 97.9283 256.479 97.4793 256.479C97.0303 256.479 96.5996 256.3 96.2821 255.983C95.9646 255.665 95.7862 255.235 95.7862 254.785V249.317C95.7862 249.027 95.9015 248.748 96.1066 248.543C96.3117 248.338 96.5899 248.223 96.88 248.223C97.1701 248.223 97.4483 248.338 97.6534 248.543C97.8585 248.748 97.9737 249.027 97.9737 249.317V253.961C97.9509 254.106 97.8773 254.238 97.7661 254.333C97.6548 254.428 97.5133 254.48 97.3669 254.48C97.2206 254.48 97.079 254.428 96.9678 254.333C96.8565 254.238 96.7829 254.106 96.7601 253.961V250.38H96.3556V253.797V253.961C96.3914 254.202 96.5123 254.422 96.6965 254.582C96.8807 254.741 97.1159 254.829 97.3594 254.83C97.6022 254.826 97.8358 254.737 98.0193 254.578C98.2029 254.419 98.3246 254.201 98.3633 253.961V253.872C98.3618 253.847 98.3618 253.822 98.3633 253.797V249.302C98.3633 248.904 98.2054 248.523 97.9245 248.242C97.6435 247.961 97.2624 247.803 96.865 247.803C96.4676 247.803 96.0865 247.961 95.8055 248.242C95.5246 248.523 95.3667 248.904 95.3667 249.302V255.01C95.4111 255.534 95.6505 256.022 96.0376 256.378C96.4247 256.733 96.9312 256.931 97.4568 256.931C97.9825 256.931 98.489 256.733 98.8761 256.378C99.2631 256.022 99.5026 255.534 99.547 255.01V250.38H99.1424L99.1724 254.785Z" fill="#263238"/>
<path d="M81.1628 250.65L79.6645 247.474L78.1662 250.65L74.6602 251.16L77.1923 253.632L76.4731 257.123L79.5746 255.475L82.706 257.123L82.1067 253.632L84.6688 251.13L81.1628 250.65ZM82.0468 256.194L79.5746 254.89L77.1174 256.194L77.5669 253.587V253.452L75.5891 251.519L78.3759 251.13L79.6045 248.642L80.8331 251.13L83.575 251.534L81.6872 253.377L81.5823 253.467L82.0468 256.194Z" fill="#263238"/>
<path d="M142.818 243.638H142.308V259.895H142.818V243.638Z" fill="#263238"/>
<path d="M132.869 249.332H126.396V256.224H132.869V249.332Z" fill="#263238"/>
<path d="M128.449 247.714V248.253H130.831V247.714H132.869V248.777H126.396V247.714H128.449Z" fill="#263238"/>
<path d="M130.832 247.189H128.449V247.714H130.832V247.189Z" fill="#263238"/>
<path d="M130.832 247.714H128.449V248.238H130.832V247.714Z" fill="#263238"/>
<path d="M157.471 253.032L159.449 251.04L159.689 251.279L157.471 253.512L155.239 251.279L155.479 251.04L157.471 253.032Z" fill="#263238"/>
<path d="M401.274 14.2038H406.878V13.9042H401.274H406.878V13.6045H401.274V14.2038Z" fill="#263238"/>
<path d="M429.247 11.3121L428.828 10.8926L426.236 13.4847L423.644 10.8926L423.224 11.3121L425.816 13.9042L423.224 16.4962L423.644 16.9158L426.236 14.3237L428.828 16.9158L429.247 16.4962L426.655 13.9042L429.247 11.3121Z" fill="#263238"/>
<path d="M411.912 17.0056H418.19V10.8027H411.987L411.912 17.0056ZM412.511 11.387H417.516V16.4063H412.511V11.387Z" fill="#263238"/>
<path d="M429.862 89.5083C429.858 88.938 429.635 88.391 429.239 87.9808C428.843 87.5706 428.304 87.3289 427.734 87.3058H419.373C418.563 87.3058 417.785 87.6278 417.212 88.201C416.639 88.7742 416.317 89.5517 416.317 90.3623C416.317 91.1729 416.639 91.9504 417.212 92.5236C417.785 93.0968 418.563 93.4188 419.373 93.4188H426.101V92.8195H419.688C419.363 92.8195 419.042 92.7556 418.742 92.6313C418.442 92.5071 418.17 92.325 417.94 92.0954C417.71 91.8659 417.528 91.5933 417.404 91.2934C417.28 90.9934 417.216 90.672 417.216 90.3473C417.216 90.0227 417.28 89.7012 417.404 89.4013C417.528 89.1013 417.71 88.8288 417.94 88.5992C418.17 88.3697 418.442 88.1876 418.742 88.0633C419.042 87.9391 419.363 87.8751 419.688 87.8751H427.689C428.114 87.8751 428.522 88.044 428.823 88.3447C429.123 88.6453 429.292 89.0531 429.292 89.4783C429.292 89.9035 429.123 90.3113 428.823 90.6119C428.522 90.9126 428.114 91.0815 427.689 91.0815H420.902C420.702 91.0326 420.523 90.9198 420.394 90.7603C420.264 90.6007 420.19 90.4031 420.182 90.1975C420.185 89.9884 420.26 89.7866 420.393 89.6257C420.527 89.4648 420.712 89.3546 420.917 89.3135H426.131V88.7142H420.902C420.504 88.7142 420.123 88.872 419.842 89.153C419.561 89.434 419.403 89.8151 419.403 90.2125C419.403 90.6098 419.561 90.9909 419.842 91.2719C420.123 91.5529 420.504 91.7108 420.902 91.7108H427.764C428.33 91.6838 428.863 91.4399 429.254 91.0297C429.645 90.6196 429.862 90.0747 429.862 89.5083Z" fill="#263238"/>
<path d="M52.8901 9.28946V16.7809H52.0211L47.5262 11.2372V16.7809H46.4624V9.28946H47.3314L51.8263 14.8332V9.28946H52.8901Z" fill="white"/>
<path d="M60.0967 14.2488H55.6018C55.6669 14.7068 55.8953 15.1259 56.245 15.4288C56.5947 15.7316 57.0421 15.8979 57.5047 15.8969C57.8092 15.9071 58.1124 15.8523 58.394 15.736C58.6756 15.6197 58.9292 15.4447 59.1378 15.2227L59.7072 15.8819C59.4228 16.186 59.0761 16.4251 58.6908 16.5828C58.3055 16.7406 57.8907 16.8132 57.4747 16.7959C57.0841 16.8188 56.693 16.7605 56.3261 16.6246C55.9591 16.4888 55.6243 16.2784 55.3428 16.0067C55.0612 15.735 54.839 15.4079 54.6902 15.046C54.5414 14.6841 54.4692 14.2954 54.4781 13.9042C54.4636 13.527 54.5267 13.1509 54.6635 12.7991C54.8003 12.4474 55.0078 12.1274 55.2733 11.8591C55.5388 11.5908 55.8565 11.3799 56.2068 11.2394C56.5572 11.099 56.9326 11.0319 57.3099 11.0424C57.6879 11.0311 58.0641 11.0991 58.4144 11.2418C58.7646 11.3845 59.0811 11.599 59.3436 11.8713C59.606 12.1436 59.8086 12.4678 59.9383 12.8231C60.068 13.1783 60.122 13.5568 60.0967 13.9342C60.1041 14.0389 60.1041 14.144 60.0967 14.2488ZM55.6018 13.5146H59.2127C59.1717 13.0642 58.9637 12.6454 58.6296 12.3404C58.2956 12.0354 57.8596 11.8663 57.4073 11.8663C56.955 11.8663 56.519 12.0354 56.1849 12.3404C55.8509 12.6454 55.6429 13.0642 55.6018 13.5146Z" fill="white"/>
<path d="M69.8803 11.0874L67.7827 16.721H66.8088L65.1757 12.4509L63.5276 16.721H62.5537L60.4561 11.0874H61.43L63.0631 15.5823L64.7562 11.0874H65.6252L67.2883 15.5823L68.9664 11.0874H69.8803Z" fill="white"/>
<path d="M79.32 15.807V16.7209H73.9111V9.22946H79.1702V10.1434H74.9749V12.4358H78.7057V13.3348H74.9749V15.7471L79.32 15.807Z" fill="white"/>
<path d="M90.2424 13.4847V16.721H89.2085V13.6045C89.2085 12.4958 88.6841 11.9564 87.7102 11.9564C87.469 11.9449 87.2283 11.987 87.0053 12.0797C86.7824 12.1724 86.5828 12.3134 86.4208 12.4925C86.2589 12.6716 86.1387 12.8844 86.0689 13.1156C85.9991 13.3467 85.9814 13.5905 86.0172 13.8293V16.721H84.9983V13.6045C84.9983 12.4958 84.4739 11.9564 83.5 11.9564C83.2588 11.9449 83.0181 11.987 82.7951 12.0797C82.5722 12.1724 82.3725 12.3134 82.2106 12.4925C82.0487 12.6716 81.9285 12.8844 81.8587 13.1156C81.7889 13.3467 81.7712 13.5905 81.8069 13.8293V16.721H80.7881V11.0874H81.762V11.9264C81.9912 11.6328 82.2881 11.399 82.6273 11.2451C82.9664 11.0911 83.3379 11.0216 83.7098 11.0424C84.1011 11.0123 84.493 11.0933 84.8403 11.2763C85.1875 11.4592 85.476 11.7365 85.6725 12.0763C85.9214 11.7383 86.25 11.467 86.629 11.2867C87.0081 11.1063 87.4258 11.0224 87.8451 11.0424C88.1734 11.0024 88.5066 11.0385 88.8188 11.1478C89.1309 11.2571 89.4138 11.4367 89.6455 11.6728C89.8773 11.9088 90.0516 12.195 90.1551 12.5092C90.2586 12.8233 90.2884 13.1571 90.2424 13.4847Z" fill="white"/>
<path d="M96.5654 13.3198V16.721H95.6065V15.9868C95.3895 16.2666 95.1056 16.4873 94.7809 16.6287C94.4563 16.77 94.1013 16.8275 93.7486 16.7959C92.4751 16.7959 91.666 16.1067 91.666 15.1328C91.666 14.1589 92.2504 13.4847 93.9284 13.4847H95.5466V13.2749C95.5466 12.4209 95.0522 11.9264 94.0483 11.9264C93.4033 11.9184 92.7746 12.1297 92.2653 12.5257L91.8458 11.7616C92.519 11.2714 93.3358 11.0184 94.1682 11.0424C95.6964 11.0424 96.5654 11.7766 96.5654 13.3198ZM95.5466 14.9979V14.2188H94.0483C93.0445 14.2188 92.7598 14.6084 92.7598 15.0878C92.7598 15.5673 93.2242 16.0018 94.0034 16.0018C94.3321 16.0111 94.6559 15.9201 94.9317 15.7407C95.2074 15.5614 95.4219 15.3023 95.5466 14.9979Z" fill="white"/>
<path d="M98.2734 9.34936C98.2734 9.25955 98.2913 9.17063 98.3261 9.08784C98.361 9.00504 98.412 8.93003 98.4762 8.86723C98.5404 8.80442 98.6165 8.75507 98.7 8.72209C98.7836 8.6891 98.8729 8.67313 98.9627 8.67513C99.0505 8.67111 99.1382 8.6847 99.2207 8.71509C99.3032 8.74548 99.3787 8.79206 99.443 8.85209C99.5072 8.91212 99.5587 8.98438 99.5946 9.06464C99.6305 9.14489 99.65 9.23151 99.6519 9.3194C99.6519 9.50219 99.5792 9.67749 99.45 9.80674C99.3207 9.936 99.1454 10.0086 98.9627 10.0086C98.7799 10.0086 98.6046 9.936 98.4753 9.80674C98.346 9.67749 98.2734 9.50219 98.2734 9.3194V9.34936ZM98.4532 11.0874H99.4721V16.721H98.4532V11.0874Z" fill="white"/>
<path d="M101.42 8.8399H102.439V16.7209H101.42V8.8399Z" fill="white"/>
<path d="M46.9265 36.7532H44.3794V35.8392H50.5224V36.7532H47.9753V43.2708H46.9265V36.7532Z" fill="#263238"/>
<path d="M50.4326 40.454C50.4087 39.8568 50.5639 39.2661 50.8783 38.7578C51.1927 38.2495 51.6519 37.8468 52.1969 37.6016C52.742 37.3563 53.3479 37.2796 53.9368 37.3813C54.5258 37.483 55.0709 37.7585 55.502 38.1724C55.9332 38.5864 56.2307 39.1197 56.3564 39.7041C56.482 40.2884 56.4301 40.8969 56.2073 41.4515C55.9844 42.0061 55.6008 42.4813 55.1058 42.8162C54.6107 43.1511 54.0268 43.3303 53.4292 43.3307C53.0383 43.3605 52.6455 43.3074 52.2765 43.175C51.9075 43.0426 51.5705 42.8338 51.2877 42.5623C51.0049 42.2908 50.7826 41.9627 50.6352 41.5994C50.4878 41.2361 50.4188 40.8458 50.4326 40.454ZM55.2571 40.454C55.2571 40.2041 55.2079 39.9567 55.1123 39.7258C55.0166 39.495 54.8765 39.2852 54.6998 39.1085C54.5231 38.9318 54.3133 38.7916 54.0824 38.696C53.8516 38.6004 53.6041 38.5512 53.3543 38.5512C53.1044 38.5512 52.8569 38.6004 52.6261 38.696C52.3952 38.7916 52.1854 38.9318 52.0087 39.1085C51.8321 39.2852 51.6919 39.495 51.5963 39.7258C51.5006 39.9567 51.4514 40.2041 51.4514 40.454C51.4514 40.7039 51.5006 40.9513 51.5963 41.1822C51.6919 41.4131 51.8321 41.6228 52.0087 41.7995C52.1854 41.9762 52.3952 42.1164 52.6261 42.212C52.8569 42.3076 53.1044 42.3569 53.3543 42.3569C53.6041 42.3569 53.8516 42.3076 54.0824 42.212C54.3133 42.1164 54.5231 41.9762 54.6998 41.7995C54.8765 41.6228 55.0166 41.4131 55.1123 41.1822C55.2079 40.9513 55.2571 40.7039 55.2571 40.454Z" fill="#263238"/>
<path d="M60.0968 38.3714C60.0947 38.2764 60.1119 38.1819 60.1474 38.0938C60.1828 38.0056 60.2357 37.9255 60.3029 37.8583C60.3701 37.7911 60.4502 37.7382 60.5383 37.7028C60.6265 37.6673 60.721 37.6501 60.816 37.6522C60.9103 37.65 61.0041 37.6673 61.0915 37.7029C61.1789 37.7385 61.258 37.7916 61.3241 37.859C61.3901 37.9265 61.4415 38.0067 61.4753 38.0949C61.509 38.183 61.5243 38.2771 61.5202 38.3714C61.5242 38.4663 61.509 38.5611 61.4754 38.6501C61.4418 38.739 61.3906 38.8202 61.3248 38.8888C61.259 38.9574 61.18 39.012 61.0926 39.0492C61.0051 39.0865 60.911 39.1056 60.816 39.1055C60.7203 39.1056 60.6255 39.0865 60.5372 39.0494C60.449 39.0123 60.369 38.958 60.302 38.8896C60.2351 38.8212 60.1824 38.7402 60.1472 38.6512C60.1119 38.5622 60.0948 38.4671 60.0968 38.3714ZM60.0968 42.6715C60.0948 42.5758 60.1119 42.4807 60.1472 42.3917C60.1824 42.3027 60.2351 42.2216 60.302 42.1532C60.369 42.0849 60.449 42.0305 60.5372 41.9935C60.6255 41.9564 60.7203 41.9373 60.816 41.9373C61.0147 41.9373 61.2052 42.0162 61.3457 42.1567C61.4862 42.2972 61.5651 42.4878 61.5651 42.6865C61.5651 42.8852 61.4862 43.0757 61.3457 43.2162C61.2052 43.3567 61.0147 43.4356 60.816 43.4356C60.7112 43.4394 60.607 43.4197 60.5108 43.3781C60.4146 43.3365 60.329 43.2739 60.2601 43.1949C60.1912 43.116 60.1407 43.0226 60.1125 42.9217C60.0842 42.8208 60.0789 42.7148 60.0968 42.6116V42.6715Z" fill="#263238"/>
<path d="M45.8927 64.5915C45.8941 64.0834 45.9985 63.5809 46.1996 63.1142C46.4006 62.6476 46.6941 62.2265 47.0624 61.8765C47.4306 61.5264 47.866 61.2546 48.3423 61.0774C48.8185 60.9003 49.3257 60.8215 49.8332 60.8458C50.3603 60.8242 50.8858 60.9161 51.3744 61.1151C51.8629 61.3142 52.303 61.6157 52.665 61.9995L51.9758 62.6737C51.7086 62.3863 51.3835 62.1589 51.0219 62.0065C50.6603 61.8541 50.2704 61.7802 49.8782 61.7897C49.4046 61.7922 48.9391 61.9122 48.5233 62.1389C48.1075 62.3656 47.7545 62.6919 47.4959 63.0886C47.2373 63.4853 47.0811 63.94 47.0415 64.4119C47.0019 64.8838 47.08 65.3582 47.2688 65.7925C47.4576 66.2268 47.7513 66.6074 48.1234 66.9003C48.4955 67.1932 48.9346 67.3891 49.4011 67.4705C49.8676 67.552 50.347 67.5164 50.7963 67.3669C51.2457 67.2175 51.651 66.9589 51.9758 66.6142L52.665 67.2885C52.3015 67.6753 51.8593 67.9798 51.3683 68.1814C50.8772 68.383 50.3487 68.477 49.8182 68.4571C49.3017 68.48 48.786 68.3961 48.3034 68.2108C47.8208 68.0254 47.3815 67.7425 47.0131 67.3797C46.6448 67.0169 46.3551 66.5821 46.1623 66.1024C45.9696 65.6227 45.8778 65.1083 45.8927 64.5915Z" fill="#263238"/>
<path d="M53.2644 65.4906C53.2553 65.1 53.3275 64.7118 53.4765 64.3507C53.6255 63.9896 53.8479 63.6634 54.1297 63.3928C54.4116 63.1223 54.7466 62.9133 55.1135 62.7792C55.4804 62.6451 55.8712 62.5888 56.261 62.6138C56.7259 62.5838 57.1901 62.6826 57.6025 62.8993C58.0149 63.1161 58.3595 63.4424 58.5984 63.8424L57.8193 64.3518C57.6589 64.1008 57.4371 63.8947 57.1749 63.7532C56.9128 63.6116 56.6189 63.5392 56.321 63.5428C55.8242 63.586 55.3617 63.8138 55.0248 64.1814C54.6878 64.5489 54.5009 65.0294 54.5009 65.528C54.5009 66.0266 54.6878 66.5071 55.0248 66.8747C55.3617 67.2422 55.8242 67.4701 56.321 67.5133C56.6189 67.5168 56.9128 67.4444 57.1749 67.3029C57.4371 67.1613 57.6589 66.9553 57.8193 66.7042L58.5984 67.1836C58.3624 67.575 58.0244 67.8946 57.6205 68.1084C57.2167 68.3223 56.7623 68.4221 56.306 68.3973C55.9099 68.4292 55.5116 68.377 55.1372 68.2441C54.7627 68.1111 54.4206 67.9005 54.1334 67.626C53.8461 67.3515 53.6202 67.0193 53.4704 66.6512C53.3207 66.2832 53.2505 65.8876 53.2644 65.4906Z" fill="#263238"/>
<path d="M62.2394 63.348C62.2424 63.2064 62.287 63.0689 62.3678 62.9526C62.4486 62.8363 62.562 62.7465 62.6936 62.6943C62.8253 62.6422 62.9694 62.6301 63.1079 62.6595C63.2464 62.6889 63.3731 62.7586 63.4722 62.8597C63.5713 62.9609 63.6383 63.089 63.6649 63.2281C63.6914 63.3672 63.6763 63.511 63.6215 63.6415C63.5666 63.7721 63.4745 63.8835 63.3566 63.9619C63.2386 64.0403 63.1002 64.0821 62.9586 64.0822C62.8629 64.0822 62.7681 64.0631 62.6799 64.026C62.5916 63.9889 62.5117 63.9346 62.4447 63.8662C62.3777 63.7979 62.3251 63.7168 62.2898 63.6278C62.2546 63.5388 62.2374 63.4437 62.2394 63.348ZM62.2394 67.6331C62.2424 67.4916 62.287 67.354 62.3678 67.2377C62.4486 67.1215 62.562 67.0316 62.6936 66.9795C62.8253 66.9273 62.9694 66.9152 63.1079 66.9446C63.2464 66.974 63.3731 67.0437 63.4722 67.1448C63.5713 67.246 63.6383 67.3741 63.6649 67.5132C63.6914 67.6523 63.6763 67.7961 63.6215 67.9267C63.5666 68.0572 63.4745 68.1687 63.3566 68.2471C63.2386 68.3254 63.1002 68.3673 62.9586 68.3673C62.8623 68.3694 62.7666 68.3518 62.6774 68.3155C62.5881 68.2791 62.5073 68.2249 62.4399 68.1561C62.3725 68.0872 62.3199 68.0053 62.2854 67.9154C62.251 67.8254 62.2353 67.7294 62.2394 67.6331Z" fill="#263238"/>
<path d="M44.769 92.8195L45.1586 91.9805C45.8492 92.5515 46.7198 92.8594 47.6158 92.8495C48.9043 92.8495 49.4587 92.3401 49.4587 91.6958C49.4587 89.8829 44.9638 91.0216 44.9638 88.2647C44.9638 87.111 45.8478 86.1371 47.8106 86.1371C48.6558 86.1271 49.4867 86.3556 50.2079 86.7964L49.8483 87.6504C49.2416 87.2553 48.5345 87.0421 47.8106 87.0361C46.552 87.0361 45.9976 87.5755 45.9976 88.2198C45.9976 90.0327 50.4925 88.894 50.4925 91.6359C50.4925 92.7746 49.5786 93.7485 47.6158 93.7485C46.5886 93.7733 45.5839 93.4455 44.769 92.8195Z" fill="#263238"/>
<path d="M57.1 88.025V93.6586H56.1261V92.8195C55.9071 93.1151 55.6194 93.3528 55.2878 93.5121C54.9562 93.6713 54.5908 93.7473 54.2232 93.7335C53.8936 93.767 53.5607 93.7262 53.2489 93.6141C52.9372 93.502 52.6545 93.3214 52.4216 93.0857C52.1888 92.85 52.0117 92.5651 51.9035 92.252C51.7952 91.9389 51.7585 91.6055 51.796 91.2763V88.025H52.8148V91.1564C52.8148 92.2652 53.3692 92.8195 54.3131 92.8195C54.5566 92.8325 54.7999 92.7918 55.0258 92.7003C55.2518 92.6088 55.4549 92.4688 55.6207 92.2901C55.7865 92.1114 55.911 91.8984 55.9854 91.6663C56.0598 91.4341 56.0823 91.1885 56.0512 90.9467V87.9501L57.1 88.025Z" fill="#263238"/>
<path d="M64.921 90.8118C64.9399 91.1927 64.8795 91.5734 64.7437 91.9298C64.6079 92.2862 64.3997 92.6105 64.1321 92.8823C63.8646 93.1541 63.5435 93.3674 63.1893 93.5087C62.8351 93.6501 62.4554 93.7164 62.0742 93.7035C61.6868 93.7191 61.3014 93.64 60.9515 93.4728C60.6017 93.3057 60.2979 93.0558 60.0665 92.7446V93.6286H59.0776V85.7476H60.0965V88.849C60.3336 88.5559 60.6359 88.322 60.9792 88.1659C61.3225 88.0099 61.6974 87.936 62.0742 87.95C62.4539 87.9329 62.833 87.9952 63.1872 88.1332C63.5414 88.2711 63.8628 88.4816 64.1308 88.751C64.3989 89.0205 64.6077 89.343 64.7437 89.6979C64.8798 90.0528 64.9402 90.4322 64.921 90.8118ZM63.8872 90.8118C63.8696 90.4398 63.7432 90.0811 63.5237 89.7802C63.3042 89.4794 63.0013 89.2495 62.6524 89.1192C62.3035 88.9888 61.9241 88.9638 61.5611 89.047C61.1981 89.1303 60.8675 89.3182 60.6103 89.5876C60.3531 89.8569 60.1806 90.1959 60.1141 90.5623C60.0477 90.9288 60.0903 91.3066 60.2366 91.6491C60.3829 91.9916 60.6264 92.2837 60.9371 92.489C61.2478 92.6944 61.6119 92.8041 61.9843 92.8045C62.2438 92.8115 62.5019 92.764 62.742 92.6651C62.982 92.5662 63.1986 92.4181 63.3779 92.2304C63.5572 92.0426 63.6951 91.8194 63.7829 91.5751C63.8706 91.3307 63.9061 91.0707 63.8872 90.8118Z" fill="#263238"/>
<path d="M64.3818 95.4565L64.7115 94.6624C64.9467 94.8448 65.2379 94.9401 65.5355 94.9321C66.0749 94.9321 66.3746 94.5875 66.3746 93.9432V87.95H67.3934V93.8383C67.423 94.0849 67.3975 94.335 67.3187 94.5706C67.2399 94.8061 67.1098 95.0213 66.9378 95.2004C66.7658 95.3796 66.5562 95.5184 66.324 95.6067C66.0919 95.695 65.8431 95.7307 65.5955 95.7112C65.1743 95.7545 64.7501 95.6654 64.3818 95.4565ZM66.1948 86.3169C66.1948 86.2271 66.2127 86.1382 66.2475 86.0554C66.2823 85.9726 66.3333 85.8976 66.3975 85.8348C66.4617 85.772 66.5378 85.7226 66.6214 85.6896C66.7049 85.6566 66.7942 85.6407 66.884 85.6427C66.9755 85.6364 67.0674 85.6493 67.1537 85.6805C67.24 85.7118 67.3188 85.7607 67.3851 85.8242C67.4514 85.8876 67.5037 85.9643 67.5386 86.0491C67.5736 86.1339 67.5905 86.2251 67.5882 86.3169C67.5882 86.4997 67.5156 86.675 67.3863 86.8042C67.2571 86.9335 67.0818 87.0061 66.899 87.0061C66.7162 87.0061 66.5409 86.9335 66.4116 86.8042C66.2824 86.675 66.2098 86.4997 66.2098 86.3169H66.1948Z" fill="#263238"/>
<path d="M74.4052 91.1864H69.9104C69.9776 91.6711 70.2277 92.1118 70.6093 92.4182C70.9909 92.7246 71.4752 92.8736 71.963 92.8345C72.2653 92.8445 72.5662 92.7895 72.8453 92.6731C73.1245 92.5568 73.3754 92.3819 73.5812 92.1603L74.1505 92.8195C73.8668 93.1244 73.5202 93.364 73.1347 93.5218C72.7493 93.6796 72.3342 93.7518 71.9181 93.7335C71.5275 93.7563 71.1364 93.698 70.7694 93.5622C70.4025 93.4264 70.0677 93.216 69.7861 92.9443C69.5046 92.6726 69.2824 92.3455 69.1336 91.9836C68.9847 91.6217 68.9125 91.2329 68.9215 90.8418C68.907 90.4646 68.9701 90.0885 69.1068 89.7367C69.2436 89.3849 69.4512 89.065 69.7167 88.7967C69.9822 88.5284 70.2999 88.3175 70.6502 88.177C71.0005 88.0365 71.376 87.9695 71.7533 87.98C72.1172 87.9837 72.4766 88.0606 72.8102 88.2061C73.1438 88.3516 73.4447 88.5627 73.6949 88.827C73.9452 89.0912 74.1397 89.4031 74.2669 89.7441C74.3941 90.0851 74.4513 90.4482 74.4352 90.8118C74.4358 90.9373 74.4257 91.0626 74.4052 91.1864ZM69.9104 90.4522H73.5362C73.4795 90.0115 73.2641 89.6066 72.9304 89.3131C72.5968 89.0197 72.1676 88.8578 71.7233 88.8578C71.2789 88.8578 70.8498 89.0197 70.5161 89.3131C70.1825 89.6066 69.9671 90.0115 69.9104 90.4522Z" fill="#263238"/>
<path d="M75.3196 90.8117C75.3126 90.4224 75.3864 90.0359 75.5363 89.6766C75.6862 89.3172 75.9089 88.9928 76.1905 88.7239C76.4721 88.455 76.8064 88.2474 77.1722 88.1142C77.5381 87.981 77.9276 87.9251 78.3162 87.95C78.7712 87.922 79.2253 88.0188 79.6293 88.2301C80.0333 88.4413 80.3719 88.7589 80.6086 89.1486L79.8295 89.6431C79.669 89.392 79.4473 89.186 79.1851 89.0444C78.923 88.9028 78.6291 88.8304 78.3312 88.834C77.8344 88.8772 77.3719 89.105 77.035 89.4726C76.698 89.8401 76.5111 90.3206 76.5111 90.8192C76.5111 91.3179 76.698 91.7984 77.035 92.1659C77.3719 92.5334 77.8344 92.7613 78.3312 92.8045C78.6291 92.8081 78.923 92.7356 79.1851 92.5941C79.4473 92.4525 79.669 92.2465 79.8295 91.9954L80.6086 92.4898C80.3702 92.8789 80.0317 93.1968 79.6284 93.4103C79.2252 93.6238 78.772 93.725 78.3162 93.7035C77.9256 93.7263 77.5345 93.668 77.1675 93.5322C76.8006 93.3963 76.4658 93.1859 76.1842 92.9142C75.9027 92.6425 75.6805 92.3154 75.5317 91.9536C75.3828 91.5917 75.3106 91.2029 75.3196 90.8117Z" fill="#263238"/>
<path d="M85.1482 93.3289C84.7979 93.602 84.3636 93.7449 83.9196 93.7334C83.6793 93.7615 83.4358 93.7354 83.2069 93.6569C82.9781 93.5784 82.7698 93.4496 82.5973 93.28C82.4248 93.1104 82.2925 92.9042 82.2102 92.6767C82.1279 92.4492 82.0976 92.2062 82.1217 91.9654V88.864H81.1777V88.0249H82.1217V86.7963H83.1405V88.0249H84.7587V88.864H83.1405V91.8606C83.1248 91.9831 83.1364 92.1076 83.1744 92.2252C83.2124 92.3427 83.2759 92.4504 83.3603 92.5406C83.4448 92.6308 83.5481 92.7012 83.6629 92.7468C83.7777 92.7924 83.9012 92.8121 84.0245 92.8045C84.317 92.809 84.6023 92.7139 84.8336 92.5348L85.1482 93.3289Z" fill="#263238"/>
<path d="M88.7589 88.6992C88.7589 88.5005 88.8379 88.31 88.9784 88.1695C89.1189 88.029 89.3094 87.9501 89.5081 87.9501C89.7068 87.9501 89.8973 88.029 90.0378 88.1695C90.1783 88.31 90.2572 88.5005 90.2572 88.6992C90.2572 88.8979 90.1783 89.0885 90.0378 89.229C89.8973 89.3694 89.7068 89.4484 89.5081 89.4484C89.3094 89.4484 89.1189 89.3694 88.9784 89.229C88.8379 89.0885 88.7589 88.8979 88.7589 88.6992ZM88.7589 92.9993C88.7619 92.8578 88.8066 92.7202 88.8874 92.6039C88.9682 92.4877 89.0815 92.3978 89.2131 92.3457C89.3448 92.2935 89.4889 92.2814 89.6274 92.3108C89.7659 92.3403 89.8926 92.4099 89.9917 92.5111C90.0908 92.6122 90.1578 92.7404 90.1844 92.8794C90.2109 93.0185 90.1959 93.1623 90.141 93.2929C90.0862 93.4234 89.994 93.5349 89.8761 93.6133C89.7582 93.6917 89.6197 93.7335 89.4781 93.7335C89.3824 93.7335 89.2877 93.7144 89.1994 93.6774C89.1112 93.6403 89.0312 93.586 88.9642 93.5176C88.8972 93.4492 88.8446 93.3682 88.8093 93.2792C88.7741 93.1902 88.757 93.095 88.7589 92.9993Z" fill="#263238"/>
<path d="M182.043 41.9373C182.043 42.1471 158.19 42.3269 128.764 42.3269C99.3371 42.3269 75.4692 42.1471 75.4692 41.9373C75.4692 41.7276 99.3221 41.5478 128.764 41.5478C158.205 41.5478 182.043 41.7276 182.043 41.9373Z" fill="#263238"/>
<path d="M229.629 66.2547C229.629 66.4645 195.168 66.6443 152.557 66.6443C109.945 66.6443 75.4692 66.4645 75.4692 66.2547C75.4692 66.045 109.93 65.8652 152.557 65.8652C195.183 65.8652 229.629 66.03 229.629 66.2547Z" fill="#263238"/>
<path d="M172.634 90.3773C172.405 90.442 172.167 90.4673 171.929 90.4522H169.892L162.4 90.5721C156.092 90.5721 147.417 90.6919 137.798 90.6919C128.179 90.6919 119.489 90.6919 113.181 90.5721L105.69 90.4522H103.652C103.415 90.4692 103.176 90.4438 102.948 90.3773C103.181 90.3358 103.419 90.3358 103.652 90.3773H105.69L113.181 90.2574C119.489 90.2574 128.164 90.1376 137.798 90.1376C147.432 90.1376 156.092 90.1376 162.4 90.2574L169.892 90.3773H171.929C172.162 90.3376 172.401 90.3376 172.634 90.3773Z" fill="#263238"/>
<path d="M434.671 103.502C434.671 103.712 345.118 103.892 234.678 103.892C124.239 103.892 34.6255 103.712 34.6255 103.502C34.6255 103.293 124.149 103.113 234.618 103.113C345.088 103.113 434.671 103.293 434.671 103.502Z" fill="#E0E0E0"/>
<path d="M434.671 77.1923C434.671 77.402 345.088 77.5818 234.603 77.5818C124.119 77.5818 34.5356 77.402 34.5356 77.1923C34.5356 76.9825 124.089 76.8027 234.603 76.8027C345.118 76.8027 434.671 76.9675 434.671 77.1923Z" fill="#E0E0E0"/>
<path d="M434.671 54.0885C434.671 54.3132 345.118 54.4781 234.678 54.4781C124.239 54.4781 34.6255 54.3132 34.6255 54.0885C34.6255 53.8637 124.149 53.6989 234.618 53.6989C345.088 53.6989 434.671 53.8787 434.671 54.0885Z" fill="#E0E0E0"/>
<path d="M84.2194 135.611C80.0009 135.997 75.763 136.127 71.5288 136C67.2896 136.127 63.0467 135.997 58.8232 135.611C63.0455 135.206 67.2893 135.071 71.5288 135.206C75.7633 135.071 80.0021 135.206 84.2194 135.611Z" fill="#263238"/>
<path d="M167.749 154.624C167.749 154.834 143.372 155.014 113.286 155.014C83.2005 155.014 58.8232 154.834 58.8232 154.624C58.8232 154.415 83.2005 154.235 113.286 154.235C143.372 154.235 167.749 154.415 167.749 154.624Z" fill="#263238"/>
<path d="M34.6257 0.359594L438.821 0H439.166V0.359594C439.166 83.8148 439.166 176.754 439.166 274.548V274.968H438.776L34.6257 274.863H34.311V274.548C34.5058 107.608 34.6257 2.92168 34.6257 0.359594C34.6257 2.92168 34.7455 107.608 34.9403 274.548L34.6257 274.233H438.821L438.432 274.623C438.432 176.859 438.432 83.9196 438.432 0.434508L438.791 0.794096L34.6257 0.359594Z" fill="#263238"/>
<path d="M264.33 219.815H461.206C462.907 219.815 464.538 220.491 465.74 221.693C466.943 222.896 467.619 224.527 467.619 226.228V348.744C467.619 352.495 466.129 356.092 463.476 358.745C460.824 361.397 457.226 362.888 453.475 362.888H272.061C268.31 362.888 264.712 361.397 262.06 358.745C259.407 356.092 257.917 352.495 257.917 348.744V226.228C257.917 224.527 258.593 222.896 259.795 221.693C260.998 220.491 262.629 219.815 264.33 219.815Z" fill="#1A8CF7"/>
<path d="M453.475 362.888H453.924C454.224 362.888 454.658 362.888 455.243 362.768C456.959 362.532 458.618 361.989 460.142 361.165C462.626 359.79 464.64 357.703 465.925 355.171C466.748 353.58 467.257 351.846 467.424 350.062C467.544 348.159 467.424 346.092 467.424 343.919C467.424 326.494 467.349 301.323 467.304 270.203C467.304 262.432 467.304 254.291 467.304 245.781C467.304 241.535 467.304 237.205 467.304 232.79V226.123C467.281 225.038 466.97 223.978 466.405 223.051C465.839 222.125 465.038 221.365 464.082 220.849C463.106 220.346 462.019 220.099 460.921 220.13H436.004H405.949H272.091H265.363C264.648 220.091 263.93 220.121 263.221 220.22C261.847 220.46 260.6 221.172 259.694 222.234C258.789 223.295 258.282 224.638 258.261 226.033C258.261 231.891 258.261 237.72 258.261 243.503V277.649C258.261 300.049 258.261 321.639 258.261 342.226C258.261 344.773 258.261 347.38 258.261 349.852C258.48 352.301 259.346 354.648 260.77 356.651C262.194 358.655 264.126 360.244 266.367 361.254C268.587 362.204 270.999 362.62 273.409 362.468H301.772H352.714L426.415 362.588H446.462L426.415 362.663L352.714 362.783H301.772H273.484C270.977 362.939 268.468 362.508 266.157 361.524C263.797 360.468 261.761 358.799 260.262 356.692C258.764 354.584 257.855 352.114 257.632 349.538C257.497 346.946 257.632 344.429 257.557 341.851C257.557 321.265 257.557 299.674 257.557 277.275C257.557 266.088 257.557 254.706 257.557 243.129C257.557 237.345 257.557 231.517 257.557 225.644C257.582 224.069 258.156 222.552 259.178 221.354C260.201 220.156 261.609 219.353 263.161 219.081C263.915 218.973 264.677 218.938 265.438 218.976H272.106H405.964H460.936C462.144 218.939 463.34 219.212 464.412 219.77C465.462 220.345 466.342 221.186 466.963 222.209C467.584 223.233 467.924 224.402 467.948 225.599V232.281C467.948 236.706 467.948 241.036 467.948 245.271C467.948 253.762 467.948 261.902 467.948 269.693C467.948 300.813 467.843 325.985 467.813 343.41C467.813 345.597 467.813 347.635 467.813 349.583C467.654 351.391 467.146 353.152 466.315 354.767C464.987 357.313 462.925 359.401 460.397 360.76C458.853 361.567 457.17 362.076 455.437 362.258C454.796 362.506 454.14 362.716 453.475 362.888Z" fill="#263238"/>
<path d="M380.927 362.888H344.504C344.504 362.888 333.311 381.571 344.504 392.854H382.231C382.231 392.854 363.607 380.613 380.927 362.888Z" fill="#1A8CF7"/>
<g opacity="0.3">
<path d="M344.504 362.888L342.661 366.588L376.043 369.196C377.564 367.012 379.194 364.907 380.927 362.888H344.504Z" fill="black"/>
</g>
<path d="M367.232 353.134C369.516 353.134 371.368 351.282 371.368 348.998C371.368 346.715 369.516 344.863 367.232 344.863C364.949 344.863 363.097 346.715 363.097 348.998C363.097 351.282 364.949 353.134 367.232 353.134Z" fill="#FAFAFA"/>
<path d="M457.565 227.696H267.971V336.817H457.565V227.696Z" fill="#FAFAFA"/>
<path d="M457.565 336.802C457.565 336.802 457.565 336.128 457.565 334.839C457.565 333.551 457.565 331.618 457.565 329.116C457.565 324.097 457.565 316.74 457.49 307.286C457.49 288.377 457.4 261.138 457.326 227.696L457.625 227.996L268.046 228.086L268.435 227.696C268.435 266.307 268.435 303.195 268.435 336.802L268.061 336.443L404.406 336.622L443.571 336.712H454.059H456.756H457.685H456.801H454.149H443.781L404.69 336.817L268.091 336.982H267.731V336.607C267.731 303.001 267.731 266.113 267.731 227.501V227.112H268.136L457.715 227.202H458.015V227.501C458.015 261.018 457.895 288.332 457.865 307.271C457.865 316.695 457.865 324.037 457.79 329.041C457.79 331.508 457.79 333.396 457.79 334.705C457.595 336.173 457.565 336.802 457.565 336.802Z" fill="#263238"/>
<path d="M314.717 236.926H270.098V334.135H314.717V236.926Z" fill="#1A8CF7"/>
<g opacity="0.4">
<path d="M314.702 273.724H270.098V282.429H314.702V273.724Z" fill="black"/>
</g>
<g opacity="0.4">
<path d="M314.702 291.479H270.098V300.184H314.702V291.479Z" fill="black"/>
</g>
<g opacity="0.4">
<path d="M314.702 312.71H270.098V322.329H314.702V312.71Z" fill="black"/>
</g>
<path d="M306.956 286.984C302.187 287.37 297.4 287.5 292.617 287.373C287.829 287.5 283.038 287.37 278.264 286.984C283.038 286.598 287.829 286.468 292.617 286.594C297.4 286.468 302.187 286.598 306.956 286.984Z" fill="#263238"/>
<path d="M306.956 277.904C302.187 278.29 297.4 278.42 292.617 278.294C287.829 278.42 283.038 278.29 278.264 277.904C283.038 277.518 287.829 277.388 292.617 277.515C297.4 277.388 302.187 277.518 306.956 277.904Z" fill="#263238"/>
<path d="M314.717 322.329C314.717 322.538 304.828 322.718 292.617 322.718C280.406 322.718 270.502 322.538 270.502 322.329C270.502 322.119 280.406 321.939 292.617 321.939C304.828 321.939 314.717 322.119 314.717 322.329Z" fill="#263238"/>
<path d="M300.169 296.153C296.532 296.539 292.872 296.669 289.216 296.543C285.561 296.669 281.901 296.539 278.264 296.153C281.901 295.768 285.561 295.638 289.216 295.764C292.872 295.638 296.532 295.768 300.169 296.153Z" fill="#263238"/>
<path d="M303.255 316.47C299.619 316.865 295.958 316.995 292.303 316.86C288.647 316.995 284.987 316.865 281.35 316.47C284.987 316.085 288.647 315.955 292.303 316.081C295.958 315.955 299.618 316.085 303.255 316.47Z" fill="#263238"/>
<path d="M306.956 306.207C302.187 306.593 297.4 306.723 292.617 306.597C287.829 306.723 283.038 306.593 278.264 306.207C283.037 305.812 287.829 305.682 292.617 305.817C297.4 305.682 302.187 305.812 306.956 306.207Z" fill="#263238"/>
<path d="M306.956 328.022C302.187 328.417 297.4 328.547 292.617 328.412C287.829 328.547 283.037 328.417 278.264 328.022C283.038 327.636 287.829 327.506 292.617 327.633C297.4 327.506 302.187 327.636 306.956 328.022Z" fill="#263238"/>
<path d="M291.809 243.488C289.423 243.493 287.109 244.3 285.238 245.78C283.368 247.259 282.049 249.325 281.496 251.645C280.942 253.966 281.185 256.404 282.186 258.569C283.187 260.734 284.888 262.499 287.014 263.58V260.329C287.014 259.002 287.541 257.729 288.48 256.791C289.418 255.852 290.691 255.325 292.018 255.325C293.346 255.325 294.618 255.852 295.557 256.791C296.495 257.729 297.023 259.002 297.023 260.329V263.326C299.071 262.174 300.679 260.376 301.596 258.213C302.513 256.05 302.687 253.644 302.091 251.372C301.496 249.099 300.163 247.088 298.302 245.654C296.442 244.219 294.158 243.442 291.809 243.443V243.488ZM292.018 254.576C291.277 254.576 290.553 254.356 289.937 253.944C289.321 253.533 288.841 252.948 288.558 252.263C288.274 251.579 288.2 250.826 288.345 250.099C288.489 249.373 288.846 248.705 289.37 248.181C289.893 247.657 290.561 247.301 291.288 247.156C292.014 247.012 292.767 247.086 293.452 247.369C294.136 247.653 294.721 248.133 295.133 248.749C295.544 249.365 295.764 250.089 295.764 250.83C295.764 251.823 295.369 252.776 294.667 253.479C293.964 254.181 293.012 254.576 292.018 254.576Z" fill="#FAFAFA"/>
<path d="M292.018 255.325C290.691 255.325 289.418 255.852 288.479 256.791C287.541 257.729 287.014 259.002 287.014 260.329V263.58C288.57 264.373 290.298 264.769 292.044 264.733C293.791 264.696 295.501 264.228 297.022 263.371V260.374C297.026 259.714 296.9 259.059 296.65 258.448C296.401 257.836 296.033 257.28 295.568 256.811C295.103 256.342 294.55 255.969 293.941 255.714C293.332 255.459 292.678 255.327 292.018 255.325Z" fill="#1A8CF7"/>
<path d="M292.018 247.084C291.277 247.084 290.553 247.304 289.937 247.715C289.321 248.127 288.841 248.712 288.558 249.397C288.274 250.081 288.2 250.834 288.344 251.561C288.489 252.287 288.846 252.955 289.37 253.479C289.893 254.002 290.561 254.359 291.287 254.504C292.014 254.648 292.767 254.574 293.452 254.291C294.136 254.007 294.721 253.527 295.133 252.911C295.544 252.295 295.764 251.571 295.764 250.83C295.764 249.837 295.369 248.884 294.667 248.181C293.964 247.479 293.012 247.084 292.018 247.084Z" fill="#1A8CF7"/>
<path d="M302.506 254.126C302.417 254.126 302.506 253.182 302.027 251.564C301.388 249.299 300.018 247.308 298.131 245.901C296.848 244.935 295.354 244.288 293.771 244.013C291.964 243.687 290.103 243.847 288.378 244.477C286.469 245.171 284.814 246.424 283.628 248.073C282.333 249.826 281.635 251.947 281.635 254.126C281.635 256.305 282.333 258.427 283.628 260.179C284.814 261.828 286.469 263.082 288.378 263.775C290.103 264.405 291.962 264.57 293.771 264.255C295.353 263.967 296.845 263.316 298.131 262.352C300.018 260.945 301.388 258.954 302.027 256.688C302.462 255.07 302.417 254.126 302.506 254.126C302.526 254.356 302.526 254.586 302.506 254.815C302.5 255.472 302.42 256.125 302.267 256.763C301.726 259.147 300.369 261.267 298.431 262.756C296.81 264.016 294.868 264.795 292.826 265.006C290.785 265.217 288.725 264.85 286.881 263.948C285.037 263.045 283.483 261.644 282.397 259.902C281.31 258.161 280.734 256.149 280.734 254.096C280.734 252.044 281.31 250.032 282.397 248.29C283.483 246.549 285.037 245.147 286.881 244.245C288.725 243.343 290.785 242.976 292.826 243.187C294.868 243.397 296.81 244.177 298.431 245.436C300.369 246.926 301.726 249.046 302.267 251.429C302.421 252.072 302.501 252.731 302.506 253.392C302.529 253.636 302.529 253.882 302.506 254.126Z" fill="#FAFAFA"/>
<path d="M454.434 269.454H314.717V282.534H454.434V269.454Z" fill="#EBEBEB"/>
<path d="M454.434 236.926H314.717V243.488H454.434V236.926Z" fill="#F5F5F5"/>
<path d="M414.01 238.889H319.662C319.066 238.889 318.583 239.372 318.583 239.967V240.372C318.583 240.968 319.066 241.451 319.662 241.451H414.01C414.605 241.451 415.088 240.968 415.088 240.372V239.967C415.088 239.372 414.605 238.889 414.01 238.889Z" fill="#E0E0E0"/>
<path d="M427.494 238.889H421.216C420.621 238.889 420.138 239.372 420.138 239.967V240.372C420.138 240.968 420.621 241.451 421.216 241.451H427.494C428.09 241.451 428.573 240.968 428.573 240.372V239.967C428.573 239.372 428.09 238.889 427.494 238.889Z" fill="#E0E0E0"/>
<path d="M434.102 238.709H433.038V239.773H434.102V238.709Z" fill="#E0E0E0"/>
<path d="M434.102 240.102H433.038V241.166H434.102V240.102Z" fill="#E0E0E0"/>
<path d="M435.75 238.709H434.686V239.773H435.75V238.709Z" fill="#E0E0E0"/>
<path d="M435.75 240.102H434.686V241.166H435.75V240.102Z" fill="#E0E0E0"/>
<path d="M454.434 243.488H314.717V256.568H454.434V243.488Z" fill="#E0E0E0"/>
<path d="M322.539 247.758H318.583V251.714H322.539V247.758Z" fill="#1A8CF7"/>
<path d="M383.729 249.721C383.729 249.931 370.904 250.111 355.082 250.111C339.26 250.111 326.449 249.931 326.449 249.721C326.449 249.511 339.275 249.332 355.082 249.332C370.889 249.332 383.729 249.496 383.729 249.721Z" fill="#263238"/>
<path d="M437.668 249.631C436.633 250.008 435.526 250.142 434.431 250.021C433.342 250.142 432.239 250.009 431.21 249.631C432.237 249.245 433.342 249.111 434.431 249.242C435.526 249.112 436.635 249.246 437.668 249.631Z" fill="#263238"/>
<path d="M454.434 282.414H314.717V295.494H454.434V282.414Z" fill="#FAFAFA"/>
<path d="M322.059 286.684H318.059V290.64H322.059V286.684Z" fill="#1A8CF7"/>
<path d="M383.729 288.587C383.729 288.812 370.784 288.977 354.812 288.977C338.84 288.977 325.895 288.812 325.895 288.587C325.895 288.362 338.84 288.198 354.812 288.198C370.784 288.198 383.729 288.437 383.729 288.587Z" fill="#263238"/>
<path d="M438.237 288.587C437.199 288.973 436.085 289.107 434.986 288.977C433.867 289.113 432.731 288.98 431.674 288.587C432.719 288.21 433.836 288.077 434.941 288.198C436.055 288.069 437.183 288.203 438.237 288.587Z" fill="#263238"/>
<path d="M454.434 295.299H314.717V308.38H454.434V295.299Z" fill="#E0E0E0"/>
<path d="M322.059 299.57H318.059V303.525H322.059V299.57Z" fill="#1A8CF7"/>
<path d="M383.729 301.532C383.729 301.757 370.784 301.922 354.812 301.922C338.84 301.922 325.895 301.757 325.895 301.532C325.895 301.308 338.84 301.143 354.812 301.143C370.784 301.143 383.729 301.323 383.729 301.532Z" fill="#263238"/>
<path d="M438.237 301.428C437.198 301.805 436.085 301.938 434.986 301.817C433.882 301.938 432.765 301.804 431.72 301.428C432.765 301.051 433.882 300.917 434.986 301.038C436.085 300.917 437.198 301.05 438.237 301.428Z" fill="#263238"/>
<path d="M454.434 308.185H314.717V321.265H454.434V308.185Z" fill="#FAFAFA"/>
<path d="M322.059 312.455H318.059V316.41H322.059V312.455Z" fill="#1A8CF7"/>
<path d="M383.729 314.418C383.729 314.628 370.784 314.807 354.812 314.807C338.84 314.807 325.895 314.628 325.895 314.418C325.895 314.208 338.84 314.028 354.812 314.028C370.784 314.028 383.729 314.193 383.729 314.418Z" fill="#263238"/>
<path d="M438.237 314.313C437.198 314.69 436.085 314.824 434.986 314.702C433.882 314.823 432.765 314.69 431.72 314.313C432.763 313.928 433.882 313.794 434.986 313.923C436.085 313.793 437.2 313.927 438.237 314.313Z" fill="#263238"/>
<path d="M454.434 321.07H314.717V334.15H454.434V321.07Z" fill="#EBEBEB"/>
<path d="M322.059 325.325H318.059V329.281H322.059V325.325Z" fill="#1A8CF7"/>
<path d="M383.729 327.303C383.729 327.513 370.784 327.693 354.812 327.693C338.84 327.693 325.895 327.513 325.895 327.303C325.895 327.093 338.84 326.913 354.812 326.913C370.784 326.913 383.729 327.078 383.729 327.303Z" fill="#263238"/>
<path d="M438.237 327.183C437.2 327.57 436.085 327.703 434.986 327.573C433.882 327.702 432.763 327.569 431.72 327.183C432.765 326.806 433.882 326.673 434.986 326.794C436.085 326.672 437.198 326.806 438.237 327.183Z" fill="#263238"/>
<path d="M454.434 256.389H314.703V269.469H454.434V256.389Z" fill="#FAFAFA"/>
<path d="M322.539 260.659H318.583V264.614H322.539V260.659Z" fill="#1A8CF7"/>
<path d="M359.157 262.622C359.157 262.846 351.815 263.011 342.765 263.011C333.716 263.011 326.374 262.846 326.374 262.622C326.374 262.397 333.716 262.232 342.765 262.232C351.815 262.232 359.157 262.412 359.157 262.622Z" fill="#263238"/>
<path d="M437.668 263.011C436.633 263.388 435.526 263.521 434.431 263.401C433.342 263.522 432.239 263.389 431.21 263.011C432.237 262.624 433.342 262.491 434.431 262.622C435.526 262.492 436.635 262.626 437.668 263.011Z" fill="#263238"/>
<path d="M437.668 275.702C436.633 276.079 435.526 276.212 434.431 276.091C433.342 276.213 432.239 276.079 431.21 275.702C432.237 275.315 433.342 275.181 434.431 275.312C435.526 275.183 436.635 275.316 437.668 275.702Z" fill="#263238"/>
<path d="M322.539 273.724H318.583V277.679H322.539V273.724Z" fill="#1A8CF7"/>
<path d="M405.349 275.687C405.349 275.896 387.669 276.076 365.869 276.076C344.069 276.076 326.374 275.896 326.374 275.687C326.374 275.477 344.054 275.297 365.869 275.297C387.684 275.297 405.349 275.462 405.349 275.687Z" fill="#263238"/>
<path d="M276.316 233.719C276.316 234.033 276.191 234.334 275.969 234.556C275.747 234.778 275.446 234.903 275.132 234.903C274.976 234.905 274.82 234.876 274.675 234.817C274.529 234.759 274.397 234.672 274.286 234.562C274.174 234.452 274.086 234.32 274.025 234.176C273.965 234.031 273.934 233.876 273.934 233.719C273.934 233.562 273.965 233.406 274.025 233.261C274.085 233.115 274.173 232.983 274.285 232.872C274.396 232.761 274.528 232.672 274.674 232.612C274.819 232.552 274.975 232.521 275.132 232.521C275.289 232.521 275.444 232.552 275.589 232.612C275.733 232.673 275.864 232.761 275.975 232.873C276.085 232.984 276.172 233.116 276.23 233.262C276.289 233.407 276.318 233.563 276.316 233.719Z" fill="#263238"/>
<path d="M280.976 233.719C280.976 234.037 280.85 234.342 280.625 234.567C280.4 234.792 280.095 234.918 279.777 234.918C279.459 234.918 279.154 234.792 278.93 234.567C278.705 234.342 278.579 234.037 278.579 233.719C278.579 233.401 278.705 233.097 278.93 232.872C279.154 232.647 279.459 232.521 279.777 232.521C280.095 232.521 280.4 232.647 280.625 232.872C280.85 233.097 280.976 233.401 280.976 233.719Z" fill="#263238"/>
<path d="M285.621 233.719C285.621 233.876 285.59 234.031 285.529 234.176C285.469 234.32 285.38 234.452 285.269 234.562C285.157 234.672 285.025 234.759 284.88 234.817C284.734 234.876 284.579 234.905 284.422 234.903C284.108 234.903 283.807 234.778 283.585 234.556C283.363 234.334 283.238 234.033 283.238 233.719C283.236 233.563 283.266 233.407 283.324 233.262C283.383 233.116 283.47 232.984 283.58 232.873C283.69 232.761 283.821 232.673 283.966 232.612C284.11 232.552 284.265 232.521 284.422 232.521C284.579 232.521 284.735 232.552 284.881 232.612C285.026 232.672 285.158 232.761 285.27 232.872C285.381 232.983 285.469 233.115 285.529 233.261C285.59 233.406 285.621 233.562 285.621 233.719Z" fill="#263238"/>
<path d="M454.434 334.135C454.434 331.738 454.434 293.921 454.269 230.363L454.434 230.543H270.143L270.383 230.318C270.383 267.012 270.383 302.117 270.383 334.09L270.158 333.866L454.449 334.09L270.158 334.315H269.858V334.09C269.858 302.117 269.858 267.012 269.858 230.318V230.153H270.098H454.389H454.569V230.333C454.509 293.921 454.449 331.753 454.434 334.135Z" fill="#263238"/>
<path d="M544.556 631.487H533.289L508.163 405.814H522.936L544.556 631.487Z" fill="#455A64"/>
<path d="M473.312 631.487H462.045L436.724 405.814H451.512L473.312 631.487Z" fill="#455A64"/>
<path d="M548.017 405.814H242.155H150.849V392.779H548.017V405.814Z" fill="#455A64"/>
<path d="M233.285 631.487H244.552L268.719 405.814H253.931L233.285 631.487Z" fill="#263238"/>
<path d="M136.615 631.487H147.882L173.188 405.814H158.4L136.615 631.487Z" fill="#263238"/>
<path d="M273.215 392.779H150.849V405.814H273.215V392.779Z" fill="#263238"/>
<path d="M413.755 388.883H329.251V392.779H413.755V388.883Z" fill="#263238"/>
<path d="M509.691 580.141L517.677 624.056L463.139 634.274C462.48 629 488.745 613.298 488.745 613.298L482.482 585.385L509.691 580.141Z" fill="#1A8CF7"/>
<g opacity="0.6">
<path d="M505.091 607.724C505.646 607.784 506.16 608.046 506.533 608.461C506.907 608.876 507.114 609.414 507.114 609.972C507.072 610.528 506.819 611.048 506.407 611.424C505.995 611.8 505.454 612.004 504.897 611.995C504.31 611.925 503.769 611.642 503.377 611.2C502.985 610.759 502.769 610.188 502.769 609.597C502.868 609.018 503.191 608.501 503.667 608.156C504.143 607.812 504.735 607.668 505.316 607.754" fill="white"/>
</g>
<g opacity="0.6">
<path d="M517.677 624.056L516.703 619.651L464.742 631.098C464.742 631.098 462.51 632.596 463.109 634.274L517.677 624.056Z" fill="white"/>
</g>
<path d="M487.786 613.133C487.786 613.403 489.194 613.268 490.678 613.882C492.161 614.497 493.045 615.486 493.27 615.381C493.494 615.276 492.82 613.778 491.022 613.058C489.224 612.339 487.681 612.893 487.786 613.133Z" fill="#263238"/>
<path d="M482.497 616.564C482.497 616.834 483.726 617.074 484.849 618.063C485.973 619.052 486.453 620.16 486.707 620.1C486.962 620.04 486.857 618.512 485.449 617.343C484.04 616.175 482.467 616.31 482.497 616.564Z" fill="#263238"/>
<path d="M480.534 624.026C480.789 624.026 480.909 622.647 479.95 621.314C478.991 619.98 477.643 619.636 477.568 619.816C477.493 619.995 478.422 620.7 479.186 621.793C479.95 622.887 480.265 624.056 480.534 624.026Z" fill="#263238"/>
<path d="M487.112 606.616C487.262 606.825 488.415 606.241 489.943 606.061C491.472 605.881 492.73 606.136 492.82 605.881C492.91 605.627 491.622 604.878 489.824 605.117C488.026 605.357 486.887 606.421 487.112 606.616Z" fill="#263238"/>
<path d="M487.112 599.888C488.057 599.968 489.005 599.787 489.854 599.364C490.804 599.001 491.71 598.529 492.551 597.956C493.045 597.608 493.516 597.228 493.959 596.817C494.234 596.59 494.471 596.322 494.663 596.023C494.819 595.795 494.889 595.52 494.862 595.246C494.834 594.972 494.711 594.716 494.513 594.524C494.346 594.366 494.143 594.248 493.922 594.18C493.701 594.113 493.468 594.097 493.24 594.135C492.892 594.199 492.554 594.31 492.236 594.465C491.682 594.718 491.151 595.019 490.648 595.363C489.804 595.955 489.057 596.673 488.43 597.491C487.397 598.9 487.142 599.978 487.247 600.023C487.352 600.068 487.846 599.139 488.955 597.926C489.597 597.225 490.327 596.61 491.127 596.098C491.604 595.796 492.105 595.535 492.626 595.319C493.18 595.049 493.659 594.959 493.869 595.184C494.079 595.408 493.944 595.319 493.869 595.498C493.731 595.719 493.559 595.916 493.36 596.083C492.925 596.487 492.491 596.862 492.071 597.191C491.299 597.764 490.477 598.265 489.614 598.69C488.756 599.037 487.92 599.437 487.112 599.888Z" fill="#263238"/>
<path d="M487.561 600.233C487.936 599.358 488.015 598.385 487.786 597.461C487.653 596.439 487.339 595.45 486.857 594.539C486.572 594.008 486.236 593.507 485.853 593.041C485.638 592.707 485.34 592.435 484.988 592.251C484.636 592.067 484.242 591.978 483.846 591.992C483.604 592.042 483.382 592.16 483.207 592.333C483.031 592.506 482.91 592.726 482.857 592.966C482.774 593.309 482.738 593.662 482.752 594.015C482.777 594.643 482.893 595.263 483.097 595.858C483.442 596.855 484.029 597.75 484.805 598.465C486.123 599.679 487.307 599.783 487.307 599.694C487.307 599.604 486.348 599.199 485.269 598C484.652 597.305 484.196 596.481 483.936 595.588C483.773 595.074 483.687 594.539 483.681 594C483.681 593.401 483.786 592.891 484.01 592.921C484.235 592.951 484.835 593.206 485.134 593.625C485.492 594.052 485.813 594.508 486.093 594.989C486.56 595.811 486.913 596.693 487.142 597.611C487.516 599.139 487.412 600.233 487.561 600.233Z" fill="#263238"/>
<path d="M446.073 587.213L454.659 631.023L400.21 641.96C399.491 636.701 425.547 620.595 425.547 620.595L418.909 592.741L446.073 587.213Z" fill="#1A8CF7"/>
<g opacity="0.6">
<path d="M441.908 614.856C442.464 614.908 442.98 615.163 443.359 615.572C443.738 615.981 443.952 616.516 443.961 617.074C443.93 617.632 443.686 618.156 443.278 618.538C442.871 618.921 442.332 619.131 441.773 619.126C441.175 619.073 440.619 618.795 440.218 618.347C439.817 617.899 439.602 617.315 439.616 616.714C439.705 616.137 440.017 615.617 440.485 615.267C440.952 614.917 441.539 614.764 442.118 614.841" fill="white"/>
</g>
<g opacity="0.6">
<path d="M454.659 631.023L453.61 626.633L401.814 638.769C401.814 638.769 399.596 640.267 400.211 641.96L454.659 631.023Z" fill="white"/>
</g>
<path d="M424.618 620.49C424.618 620.76 426.026 620.61 427.51 621.209C428.993 621.808 429.907 622.707 430.132 622.617C430.356 622.528 429.652 621.014 427.839 620.325C426.026 619.636 424.513 620.265 424.618 620.49Z" fill="#263238"/>
<path d="M419.374 624.011C419.374 624.281 420.618 624.49 421.741 625.434C422.865 626.378 423.374 627.517 423.629 627.457C423.884 627.397 423.764 625.854 422.341 624.7C420.917 623.546 419.329 623.756 419.374 624.011Z" fill="#263238"/>
<path d="M417.516 631.487C417.755 631.487 417.86 630.094 416.886 628.775C415.913 627.457 414.549 627.127 414.489 627.382C414.429 627.637 415.343 628.236 416.122 629.345C416.901 630.454 417.246 631.517 417.516 631.487Z" fill="#263238"/>
<path d="M423.809 613.987C423.959 614.197 425.112 613.598 426.626 613.388C428.139 613.178 429.427 613.388 429.517 613.178C429.607 612.968 428.289 612.204 426.521 612.459C424.753 612.714 423.629 613.808 423.809 613.987Z" fill="#263238"/>
<path d="M423.794 607.26C424.737 607.338 425.683 607.145 426.521 606.706C427.471 606.314 428.371 605.811 429.203 605.207C429.692 604.859 430.157 604.478 430.596 604.069C430.866 603.836 431.099 603.563 431.285 603.259C431.438 603.031 431.507 602.757 431.479 602.483C431.452 602.21 431.331 601.955 431.136 601.761C430.965 601.603 430.759 601.487 430.536 601.422C430.312 601.357 430.076 601.345 429.847 601.387C429.497 601.449 429.158 601.565 428.843 601.731C428.295 601.993 427.769 602.299 427.27 602.645C426.437 603.251 425.7 603.978 425.083 604.803C424.064 606.226 423.824 607.305 423.929 607.35C424.034 607.395 424.513 606.451 425.607 605.222C426.246 604.516 426.971 603.892 427.764 603.364C428.245 603.066 428.746 602.8 429.263 602.57C429.802 602.301 430.297 602.196 430.491 602.435C430.686 602.675 430.581 602.555 430.491 602.75C430.354 602.971 430.182 603.168 429.982 603.334C429.583 603.733 429.158 604.103 428.708 604.443C427.95 605.021 427.137 605.522 426.281 605.941C425.425 606.328 424.594 606.769 423.794 607.26Z" fill="#263238"/>
<path d="M424.183 607.575C424.534 606.693 424.597 605.723 424.363 604.803C424.212 603.779 423.883 602.79 423.389 601.881C423.099 601.35 422.758 600.848 422.37 600.383C422.148 600.054 421.846 599.788 421.491 599.61C421.137 599.432 420.744 599.347 420.347 599.364C420.107 599.421 419.888 599.544 419.713 599.718C419.538 599.893 419.416 600.113 419.359 600.353C419.284 600.697 419.259 601.05 419.284 601.402C419.322 602.028 419.458 602.645 419.688 603.23C420.04 604.218 420.632 605.104 421.411 605.807C422.76 607.005 423.928 607.095 423.943 607.005C423.958 606.915 422.969 606.526 421.891 605.342C421.262 604.653 420.791 603.835 420.512 602.945C420.345 602.432 420.254 601.896 420.243 601.357C420.243 600.772 420.332 600.263 420.557 600.278C420.782 600.293 421.381 600.563 421.696 600.967C422.058 601.388 422.384 601.839 422.67 602.316C423.145 603.132 423.508 604.009 423.749 604.923C424.183 606.511 424.063 607.56 424.183 607.575Z" fill="#263238"/>
<path d="M477.837 595.978L456.681 478.122C455.643 472.302 456.16 466.312 458.18 460.756C460.517 454.228 464.811 448.579 470.477 444.581C476.143 440.583 482.904 438.43 489.839 438.417H564.514L613.298 460.037C613.301 464.209 612.44 468.336 610.77 472.159C609.1 475.981 606.657 479.417 603.595 482.25C600.533 485.083 596.917 487.251 592.976 488.619C589.035 489.987 584.854 490.525 580.695 490.198L501.016 483.95L512.493 590.704L477.837 595.978Z" fill="#263238"/>
<path d="M416.078 602.211L391.925 478.122C390.894 472.302 391.411 466.314 393.423 460.756C395.761 454.228 400.055 448.579 405.721 444.581C411.387 440.583 418.148 438.43 425.082 438.417H499.758L548.542 460.082V492.805L436.245 483.995L450.943 594.27L416.078 602.211Z" fill="#263238"/>
<path d="M450.958 594.24C450.958 594.24 450.853 593.79 450.703 592.921C450.553 592.052 450.374 590.704 450.134 589.101C449.639 585.729 448.965 580.95 448.126 575.077C446.508 563.09 444.29 546.819 441.833 528.764C439.571 511.429 437.503 495.667 435.975 483.995L436.095 484.205C430.746 480.519 426.685 477.223 423.764 475.08L420.423 472.593C420.01 472.331 419.619 472.035 419.254 471.709L419.584 471.889L420.512 472.458C421.307 472.983 422.475 473.777 423.944 474.825C426.94 476.893 431.061 480.129 436.409 483.725L436.514 483.8V483.92C438.088 495.592 440.23 511.339 442.582 528.674C444.95 546.729 447.077 563.135 448.65 575.017C449.385 580.89 449.984 585.669 450.404 589.071C450.583 590.674 450.733 591.947 450.838 592.891C450.918 593.336 450.958 593.788 450.958 594.24Z" fill="#455A64"/>
<path d="M380.268 389.153L385.557 379.234C385.862 378.777 386.281 378.407 386.772 378.16C387.263 377.913 387.81 377.798 388.359 377.826L390.726 377.931L394.757 374.17H399.461L403.087 371.758L417.051 374.439L428.558 377.526L422.011 390.471L415.448 389.093L404.421 388.898C401.234 388.842 398.191 387.559 395.925 385.317C393.961 383.392 391.319 382.316 388.569 382.321C388.569 382.321 385.108 390.097 380.268 389.153Z" fill="#FFBE9D"/>
<path d="M539.552 239.713L539.777 311.466L508.987 312.964L508.088 295.479C508.088 295.479 497.15 297.652 494.333 287.493C492.536 281.006 492.985 230.888 492.985 230.888L539.552 239.713Z" fill="#FFBE9D"/>
<path d="M540.016 295.899C543.298 292.498 544.811 287.763 545.575 283.103C546.339 278.444 546.459 273.679 547.493 269.064C548.557 264.21 550.609 259.625 551.643 254.77C552.677 249.916 552.602 244.492 549.725 240.447C549.725 240.447 547.822 234.888 539.702 234.454C539.702 234.454 532.795 223.276 522.591 224.25C508.732 225.569 508.357 221.493 498.798 219.995C497.672 219.724 496.504 219.678 495.361 219.861C494.217 220.044 493.122 220.452 492.137 221.06C491.152 221.669 490.297 222.467 489.622 223.408C488.948 224.349 488.466 225.414 488.205 226.543C488.205 226.543 483.306 230.183 483.081 235.442V235.577C483.007 238.177 483.773 240.731 485.266 242.86C486.759 244.99 488.898 246.581 491.367 247.399L493.21 248.013C495 248.439 496.667 249.275 498.079 250.455C500.012 252.388 500.326 255.385 500.222 258.112C500.117 260.839 499.742 263.655 500.656 266.217C500.971 267.087 501.72 268.045 502.619 267.806C503.518 267.566 503.638 266.038 503.743 264.929C504.057 261.723 508.237 259.28 511.084 261.633C511.982 262.31 512.62 263.274 512.893 264.364C513.165 265.455 513.056 266.606 512.583 267.626C511.504 269.873 509.151 271.641 508.702 274.158C507.938 278.369 512.882 282.054 514.77 284.347C515.414 285.174 516.137 285.936 516.928 286.624C521.018 290.055 525.018 294.82 530.412 296.678C534.008 297.921 538.398 297.607 541.125 294.955" fill="#263238"/>
<path d="M503.593 309.458C496.806 314.313 499.592 327.318 499.503 334.135C499.308 349.358 500.746 363.652 501.54 366.034C502.709 369.54 506.934 399.296 506.934 399.296L499.757 438.417C499.757 438.417 508.927 461.805 548.557 461.581L568.304 456.861C573.08 455.72 577.288 452.902 580.161 448.92C583.035 444.939 584.383 440.058 583.962 435.166L579.467 382.56L573.474 339.874C571.975 317.474 557.876 305.548 539.942 306.821L503.593 309.458Z" fill="#1A8CF7"/>
<g opacity="0.5">
<path d="M519.79 456.501C515.444 454.254 521.288 410.459 526.337 388.029C528.315 379.279 530.937 370.244 537.155 363.772C542.256 358.828 548.685 355.475 555.659 354.123C562.091 352.802 568.645 352.159 575.212 352.205L581.414 451.902C581.414 451.902 538.443 466.21 519.79 456.501Z" fill="black"/>
</g>
<path d="M503.593 309.458C499.437 310.257 495.527 312.023 492.18 314.613C488.832 317.203 486.141 320.544 484.325 324.366C479.335 334.72 457.505 377.826 457.505 377.826L424.138 375.608L417.471 390.831L463.139 403.102C472.578 404.915 480.819 399.161 485.463 390.651L504.642 355.561L503.593 309.458Z" fill="#1A8CF7"/>
<path d="M506.859 309.458C506.859 309.458 506.02 301.832 507.114 300.469C508.208 299.105 541.32 299.375 541.32 299.375L543.073 308.125L539.387 314.657L507.923 317.399L506.859 309.458Z" fill="#1A8CF7"/>
<path d="M461.401 385.347C459.37 383.56 458.122 381.048 457.925 378.35C459.103 380.673 460.262 383.005 461.401 385.347Z" fill="#263238"/>
<path d="M509.212 343.649C507.81 347.686 506.164 351.634 504.282 355.471C502.627 359.414 500.741 363.257 498.634 366.978C500.035 362.941 501.681 358.993 503.563 355.156C505.211 351.21 507.097 347.367 509.212 343.649Z" fill="#263238"/>
<path d="M542.789 306.791C542.789 306.791 542.983 307.121 542.983 307.84C542.98 308.371 542.808 308.888 542.494 309.316C542.179 309.744 541.736 310.061 541.23 310.222C537.769 310.432 532.241 310.687 525.903 310.912C520.569 311.106 515.774 311.241 512.223 311.286C510.811 311.3 509.414 310.998 508.133 310.402C507.234 309.923 506.889 309.473 506.919 309.443C506.949 309.413 507.369 309.758 508.253 310.118C509.527 310.586 510.882 310.795 512.238 310.732C515.684 310.537 520.539 310.327 525.873 310.133C532.166 309.908 537.754 309.773 541.23 309.743C541.666 309.616 542.053 309.361 542.341 309.011C542.63 308.661 542.807 308.232 542.848 307.78C542.804 307.166 542.729 306.791 542.789 306.791Z" fill="#263238"/>
<path d="M487.681 319.062C487.876 319.152 481.314 332.203 473.028 348.204C464.742 364.206 457.88 377.107 457.685 376.987C457.491 376.867 464.053 363.832 472.339 347.83C480.624 331.828 487.487 318.958 487.681 319.062Z" fill="#263238"/>
<path d="M500.237 328.652C500.237 328.652 500.521 328.562 501.001 328.771C501.351 328.915 501.667 329.132 501.926 329.409C502.184 329.685 502.38 330.015 502.499 330.375C502.647 330.924 502.623 331.506 502.43 332.042C502.237 332.578 501.885 333.042 501.42 333.371C500.865 333.761 500.194 333.951 499.517 333.911C498.858 333.911 498.214 333.791 497.585 333.746C497.034 333.689 496.477 333.76 495.957 333.952C495.438 334.144 494.97 334.453 494.588 334.854C494.266 335.186 494.014 335.578 493.844 336.007C493.674 336.436 493.591 336.895 493.599 337.357C493.676 338.246 493.941 339.11 494.378 339.889C494.378 339.979 493.254 339.274 493.045 337.387C493.001 336.844 493.069 336.298 493.244 335.783C493.419 335.267 493.698 334.793 494.064 334.39C494.516 333.89 495.08 333.503 495.71 333.261C496.34 333.018 497.018 332.928 497.689 332.997C499.038 333.131 500.251 333.401 501.061 332.817C501.425 332.569 501.709 332.22 501.877 331.813C502.045 331.405 502.089 330.957 502.005 330.524C501.859 329.909 501.484 329.373 500.956 329.026C500.476 328.771 500.222 328.711 500.237 328.652Z" fill="#FAFAFA"/>
<path d="M544.466 329.131C544.466 329.131 544.766 329.056 545.245 329.251C545.582 329.408 545.882 329.632 546.127 329.911C546.372 330.189 546.556 330.516 546.669 330.869C546.818 331.417 546.796 331.998 546.606 332.534C546.416 333.07 546.067 333.534 545.605 333.866C545.041 334.237 544.377 334.425 543.702 334.405C543.028 334.405 542.399 334.27 541.769 334.225C541.217 334.171 540.66 334.244 540.14 334.439C539.621 334.633 539.153 334.945 538.773 335.349C538.451 335.68 538.198 336.072 538.029 336.501C537.859 336.931 537.776 337.389 537.784 337.851C537.851 338.743 538.118 339.608 538.563 340.383C538.563 340.458 537.439 339.754 537.23 337.881C537.186 337.34 537.253 336.795 537.426 336.28C537.598 335.765 537.873 335.291 538.233 334.884C538.687 334.38 539.253 333.99 539.885 333.745C540.518 333.5 541.199 333.408 541.874 333.476C543.223 333.611 544.421 333.881 545.245 333.296C545.609 333.051 545.892 332.705 546.06 332.3C546.228 331.895 546.273 331.449 546.189 331.019C546.035 330.408 545.662 329.875 545.141 329.521C544.721 329.266 544.451 329.191 544.466 329.131Z" fill="#FAFAFA"/>
<path d="M543.927 361.12C543.927 361.12 543.927 361.434 543.628 361.854C543.398 362.145 543.11 362.384 542.783 362.557C542.455 362.73 542.095 362.833 541.725 362.858C541.151 362.874 540.585 362.712 540.105 362.396C539.626 362.08 539.255 361.624 539.043 361.09C538.826 360.448 538.826 359.753 539.043 359.112C539.208 358.468 539.477 357.868 539.672 357.284C539.861 356.752 539.926 356.185 539.864 355.625C539.802 355.064 539.613 354.525 539.313 354.048C538.8 353.282 538.01 352.746 537.11 352.549C536.23 352.407 535.329 352.464 534.473 352.714C534.837 352.38 535.277 352.141 535.756 352.018C536.234 351.895 536.735 351.892 537.215 352.01C537.759 352.091 538.28 352.285 538.744 352.579C539.209 352.873 539.606 353.261 539.912 353.718C540.294 354.277 540.538 354.919 540.624 355.591C540.71 356.263 540.635 356.946 540.406 357.584C539.957 358.857 539.403 359.966 539.777 360.895C539.924 361.313 540.192 361.679 540.547 361.946C540.901 362.212 541.327 362.368 541.77 362.393C542.396 362.39 543 362.156 543.463 361.734C543.748 361.344 543.882 361.105 543.927 361.12Z" fill="#FAFAFA"/>
<path d="M524.569 406.503C524.569 406.503 524.569 406.818 524.269 407.222C524.038 407.514 523.747 407.755 523.417 407.927C523.087 408.1 522.724 408.202 522.352 408.226C521.779 408.243 521.215 408.084 520.735 407.771C520.256 407.457 519.884 407.004 519.67 406.473C519.46 405.825 519.46 405.128 519.67 404.48C519.834 403.836 520.104 403.252 520.299 402.652C520.495 402.125 520.565 401.558 520.503 400.999C520.44 400.439 520.247 399.902 519.939 399.431C519.692 399.049 519.371 398.72 518.995 398.463C518.62 398.206 518.197 398.026 517.752 397.933C516.873 397.786 515.972 397.837 515.115 398.083C515.025 398.083 515.969 397.139 517.857 397.393C518.398 397.476 518.917 397.669 519.381 397.96C519.845 398.251 520.244 398.635 520.554 399.086C520.931 399.648 521.173 400.29 521.258 400.961C521.344 401.632 521.272 402.314 521.048 402.952C520.584 404.241 520.029 405.334 520.404 406.263C520.547 406.684 520.814 407.052 521.17 407.319C521.525 407.586 521.952 407.74 522.396 407.762C523.029 407.766 523.639 407.53 524.105 407.102C524.344 406.713 524.479 406.473 524.569 406.503Z" fill="#FAFAFA"/>
<path d="M564.289 340.129C564.289 340.129 564.589 340.129 565.068 340.248C565.419 340.395 565.735 340.615 565.993 340.894C566.252 341.174 566.447 341.505 566.566 341.867C566.716 342.415 566.694 342.996 566.504 343.532C566.314 344.067 565.964 344.532 565.502 344.863C564.94 345.237 564.274 345.42 563.6 345.388C562.925 345.388 562.281 345.268 561.667 345.223C561.116 345.169 560.56 345.24 560.041 345.432C559.522 345.625 559.053 345.932 558.67 346.332C558.347 346.665 558.093 347.059 557.923 347.491C557.754 347.923 557.671 348.385 557.681 348.849C557.744 349.737 558.011 350.598 558.46 351.366C558.46 351.456 557.337 350.752 557.127 348.879C557.083 348.337 557.149 347.793 557.322 347.277C557.494 346.762 557.77 346.288 558.131 345.882C558.584 345.378 559.15 344.987 559.783 344.743C560.415 344.498 561.097 344.406 561.772 344.474C563.12 344.608 564.319 344.878 565.128 344.294C565.494 344.051 565.781 343.705 565.951 343.3C566.122 342.895 566.169 342.448 566.087 342.016C565.932 341.406 565.559 340.873 565.038 340.518C564.544 340.263 564.274 340.189 564.289 340.129Z" fill="#FAFAFA"/>
<path d="M518.097 380.328C518.097 380.328 517.872 380.118 517.797 379.594C517.751 379.226 517.784 378.854 517.892 378.5C518 378.146 518.183 377.819 518.426 377.541C518.819 377.12 519.332 376.83 519.895 376.712C520.458 376.594 521.044 376.653 521.573 376.882C522.207 377.154 522.734 377.628 523.071 378.23C523.416 378.815 523.64 379.414 523.925 379.983C524.169 380.491 524.524 380.938 524.966 381.288C525.407 381.639 525.922 381.884 526.472 382.006C527.372 382.181 528.304 381.993 529.064 381.482C529.788 380.961 530.387 380.285 530.817 379.504C530.892 379.504 530.817 380.777 529.319 381.946C528.878 382.269 528.375 382.498 527.841 382.62C527.308 382.741 526.755 382.751 526.218 382.65C525.552 382.523 524.926 382.241 524.39 381.828C523.854 381.414 523.422 380.879 523.131 380.268C522.547 379.039 522.157 377.871 521.228 377.481C520.829 377.296 520.385 377.233 519.951 377.3C519.516 377.366 519.111 377.56 518.786 377.856C518.345 378.307 518.084 378.904 518.052 379.534C518.067 379.983 518.157 380.298 518.097 380.328Z" fill="#FAFAFA"/>
<path d="M520.269 350.257C520.269 350.257 520.569 350.167 521.033 350.377C521.385 350.518 521.701 350.735 521.96 351.012C522.219 351.289 522.414 351.619 522.531 351.98C522.681 352.528 522.659 353.109 522.469 353.645C522.279 354.181 521.929 354.645 521.468 354.977C520.901 355.355 520.23 355.543 519.55 355.516C518.891 355.516 518.246 355.381 517.632 355.336C517.08 355.287 516.525 355.363 516.006 355.557C515.487 355.752 515.019 356.06 514.635 356.46C514.314 356.791 514.061 357.183 513.891 357.612C513.722 358.042 513.638 358.5 513.646 358.962C513.724 359.854 513.995 360.718 514.441 361.494C514.441 361.569 513.317 360.88 513.107 358.992C513.057 358.45 513.12 357.904 513.293 357.388C513.466 356.872 513.744 356.398 514.111 355.995C514.561 355.492 515.125 355.103 515.756 354.861C516.386 354.619 517.065 354.53 517.737 354.602C519.1 354.737 520.299 355.007 521.108 354.422C521.476 354.178 521.762 353.829 521.93 353.42C522.098 353.012 522.141 352.563 522.052 352.13C521.904 351.52 521.536 350.987 521.018 350.632C520.524 350.377 520.254 350.317 520.269 350.257Z" fill="#FAFAFA"/>
<path d="M519.37 421.411C519.37 421.411 519.67 421.411 520.134 421.531C520.484 421.68 520.798 421.901 521.056 422.18C521.315 422.459 521.511 422.789 521.633 423.149C521.782 423.698 521.76 424.278 521.57 424.814C521.38 425.35 521.031 425.814 520.569 426.146C520 426.517 519.33 426.706 518.651 426.685C517.992 426.685 517.348 426.55 516.718 426.505C516.166 426.452 515.609 426.526 515.09 426.72C514.571 426.915 514.103 427.226 513.722 427.629C513.398 427.959 513.144 428.35 512.974 428.78C512.804 429.21 512.722 429.669 512.733 430.131C512.812 431.016 513.078 431.874 513.512 432.648C513.512 432.738 512.403 432.034 512.178 430.161C512.134 429.619 512.201 429.072 512.376 428.557C512.552 428.041 512.831 427.568 513.197 427.165C513.648 426.66 514.211 426.27 514.841 426.025C515.471 425.78 516.151 425.688 516.823 425.756C518.172 425.891 519.385 426.161 520.194 425.576C520.561 425.334 520.847 424.988 521.015 424.582C521.183 424.176 521.226 423.729 521.138 423.299C520.994 422.687 520.625 422.153 520.104 421.801C519.625 421.546 519.355 421.471 519.37 421.411Z" fill="#FAFAFA"/>
<path d="M476.983 383.489C476.983 383.489 477.283 383.399 477.762 383.609C478.101 383.762 478.403 383.985 478.649 384.264C478.894 384.543 479.077 384.872 479.186 385.227C479.342 385.775 479.323 386.358 479.132 386.895C478.942 387.432 478.589 387.897 478.122 388.224C477.567 388.614 476.896 388.804 476.219 388.763C475.545 388.763 474.915 388.643 474.286 388.598C473.735 388.544 473.179 388.616 472.66 388.808C472.141 389 471.673 389.307 471.29 389.707C470.966 390.04 470.712 390.434 470.543 390.866C470.373 391.299 470.291 391.76 470.301 392.224C470.37 393.111 470.637 393.97 471.08 394.741C471.08 394.831 469.956 394.127 469.746 392.239C469.7 391.696 469.766 391.15 469.942 390.634C470.117 390.118 470.397 389.645 470.765 389.243C471.215 388.737 471.778 388.346 472.408 388.102C473.039 387.857 473.718 387.765 474.391 387.834C475.74 387.969 476.953 388.239 477.762 387.654C478.129 387.408 478.414 387.059 478.582 386.651C478.75 386.243 478.793 385.795 478.706 385.362C478.561 384.747 478.186 384.211 477.657 383.864C477.238 383.624 476.983 383.549 476.983 383.489Z" fill="#FAFAFA"/>
<path d="M488.295 362.768C488.295 362.768 488.295 363.067 488.1 363.532C487.916 363.854 487.666 364.134 487.367 364.353C487.067 364.572 486.725 364.727 486.362 364.805C485.8 364.908 485.219 364.836 484.699 364.597C484.179 364.359 483.745 363.966 483.456 363.472C483.129 362.878 483.003 362.195 483.096 361.524C483.096 360.85 483.336 360.236 483.441 359.606C483.549 359.055 483.529 358.486 483.384 357.943C483.238 357.401 482.971 356.898 482.602 356.475C482.299 356.124 481.93 355.836 481.516 355.628C481.103 355.419 480.652 355.295 480.189 355.261C479.301 355.262 478.422 355.451 477.612 355.816C477.522 355.816 478.316 354.752 480.219 354.722C480.78 354.71 481.338 354.818 481.854 355.037C482.371 355.257 482.835 355.583 483.216 355.995C483.674 356.493 484.01 357.091 484.194 357.741C484.379 358.392 484.408 359.077 484.28 359.741C484.025 361.075 483.65 362.243 484.145 363.112C484.358 363.5 484.68 363.816 485.072 364.022C485.464 364.227 485.907 364.312 486.347 364.266C486.965 364.163 487.525 363.838 487.921 363.352C488.145 363.007 488.235 362.753 488.295 362.768Z" fill="#FAFAFA"/>
<path d="M520.674 324.906C520.674 324.906 520.674 325.205 520.494 325.655C520.31 325.979 520.061 326.261 519.761 326.483C519.462 326.705 519.119 326.862 518.756 326.943C518.189 327.046 517.605 326.972 517.082 326.73C516.559 326.489 516.124 326.093 515.834 325.595C515.507 325.002 515.38 324.318 515.474 323.647C515.474 322.988 515.714 322.359 515.819 321.744C515.931 321.194 515.916 320.625 515.773 320.082C515.63 319.539 515.364 319.037 514.995 318.613C514.38 317.909 513.514 317.474 512.583 317.399C511.688 317.388 510.803 317.578 509.991 317.954C510.3 317.568 510.7 317.265 511.155 317.072C511.61 316.878 512.106 316.8 512.598 316.845C513.148 316.845 513.691 316.959 514.194 317.181C514.697 317.403 515.149 317.727 515.519 318.133C515.981 318.629 516.318 319.227 516.506 319.878C516.693 320.528 516.725 321.214 516.598 321.879C516.329 323.198 515.954 324.381 516.463 325.235C516.671 325.625 516.99 325.943 517.38 326.148C517.77 326.354 518.213 326.438 518.651 326.389C519.273 326.296 519.839 325.976 520.239 325.49C520.524 325.131 520.614 324.876 520.674 324.906Z" fill="#FAFAFA"/>
<path d="M564.094 322.329C564.094 322.329 564.094 322.628 563.9 323.093C563.715 323.415 563.465 323.695 563.166 323.914C562.866 324.134 562.524 324.288 562.162 324.366C561.599 324.472 561.017 324.4 560.497 324.161C559.976 323.922 559.542 323.528 559.255 323.033C558.927 322.44 558.801 321.756 558.895 321.085C558.895 320.411 559.135 319.797 559.24 319.167C559.348 318.616 559.329 318.047 559.183 317.504C559.038 316.962 558.77 316.459 558.401 316.036C557.794 315.33 556.932 314.894 556.004 314.822C555.11 314.821 554.227 315.01 553.412 315.377C553.322 315.377 554.131 314.313 556.019 314.283C556.567 314.281 557.11 314.393 557.613 314.612C558.116 314.832 558.568 315.153 558.94 315.556C559.402 316.052 559.739 316.65 559.924 317.301C560.109 317.952 560.136 318.638 560.004 319.302C559.749 320.636 559.375 321.804 559.884 322.673C560.093 323.061 560.413 323.378 560.802 323.583C561.192 323.789 561.634 323.874 562.072 323.827C562.693 323.733 563.256 323.407 563.645 322.913C563.945 322.569 564.034 322.314 564.094 322.329Z" fill="#FAFAFA"/>
<path d="M449.864 388.973C449.864 388.973 449.864 389.273 449.67 389.737C449.487 390.058 449.239 390.336 448.942 390.556C448.646 390.775 448.307 390.93 447.947 391.011C447.381 391.117 446.797 391.046 446.274 390.807C445.751 390.568 445.315 390.174 445.025 389.677C444.697 389.084 444.571 388.4 444.665 387.729C444.665 387.055 444.905 386.441 445.01 385.812C445.121 385.26 445.104 384.691 444.958 384.147C444.813 383.604 444.543 383.102 444.171 382.68C443.564 381.975 442.702 381.538 441.774 381.466C440.88 381.466 439.997 381.655 439.182 382.021C439.092 382.021 439.901 380.957 441.789 380.927C442.338 380.923 442.881 381.035 443.384 381.254C443.888 381.473 444.339 381.796 444.71 382.201C445.172 382.696 445.509 383.294 445.694 383.945C445.879 384.596 445.906 385.282 445.774 385.946C445.519 387.28 445.145 388.449 445.654 389.318C445.864 389.704 446.184 390.02 446.574 390.225C446.963 390.43 447.404 390.516 447.842 390.471C448.466 390.374 449.032 390.048 449.43 389.557C449.655 389.138 449.804 388.883 449.864 388.973Z" fill="#FAFAFA"/>
<path d="M519.445 499.727L518.261 631.487H525.753L526.322 502.349C526.322 502.349 526.697 496.446 531.192 496.056C535.686 495.667 603.11 499.053 603.11 499.053L622.977 631.487H631.607L612.13 499.068C612.13 499.068 555.509 479.92 527.371 485.823C527.371 485.823 520.614 484.579 520.239 489.764C519.864 494.948 519.445 499.727 519.445 499.727Z" fill="#E0E0E0"/>
<path d="M520.764 484.504C520.764 484.504 532.48 393.108 536.69 377.616C538.699 370.608 543.359 364.659 549.681 361.03C553.258 358.865 557.382 357.772 561.562 357.883L623.757 359.247C625.099 359.275 626.42 359.59 627.63 360.172C628.84 360.754 629.912 361.588 630.772 362.619C631.633 363.65 632.262 364.853 632.618 366.148C632.974 367.443 633.049 368.798 632.836 370.124L612.22 499.068C589.341 499.068 535.807 499.068 535.807 499.068C535.807 499.068 462.555 491.082 451.303 490.587C444.276 490.273 443.811 492.985 443.152 495.921C436.559 490.587 440.5 479.605 448.965 480.129L520.764 484.504Z" fill="#455A64"/>
<path d="M632.446 365.51C632.272 365.529 632.096 365.529 631.922 365.51H630.349L624.356 365.585L602.196 365.704H586.883H573.893C572.395 365.704 570.896 365.704 569.398 365.794C566.232 366.123 563.225 367.345 560.729 369.319C558.232 371.293 556.349 373.937 555.299 376.942C554.801 378.54 554.445 380.18 554.235 381.841C553.966 383.534 553.681 385.242 553.396 386.95C552.837 390.386 552.272 393.882 551.703 397.438C547.043 425.591 542.818 451.077 539.717 469.581C538.218 478.781 536.885 486.228 536.016 491.442C535.567 493.974 535.207 495.936 534.967 497.435C534.847 498.079 534.742 498.588 534.668 498.933C534.653 499.108 534.613 499.28 534.548 499.442C534.528 499.268 534.528 499.092 534.548 498.918C534.548 498.529 534.668 498.019 534.757 497.42C534.982 496.011 535.282 494.019 535.671 491.427C536.495 486.198 537.664 478.736 539.117 469.521C542.114 451.018 546.264 425.516 550.834 397.333C551.413 393.817 551.983 390.321 552.542 386.845C552.827 385.122 553.112 383.429 553.381 381.736C553.605 380.031 553.97 378.347 554.475 376.702C555.575 373.56 557.55 370.798 560.168 368.741C562.785 366.684 565.935 365.417 569.248 365.09C570.836 364.97 572.35 365.015 573.848 365.015H586.838H602.151L624.311 365.135L630.304 365.21H631.877L632.446 365.51Z" fill="#263238"/>
<path d="M443.017 499.727L439.601 631.487H447.092L449.025 502.559C449.025 502.559 449.115 494.873 455.018 495.517C459.513 496.011 527.596 503.922 527.596 503.922L550.505 631.487H559.135L535.806 499.068L452.366 488.58C450.63 488.326 448.857 488.592 447.272 489.344C446.048 489.961 445.016 490.901 444.29 492.064C443.563 493.226 443.169 494.566 443.152 495.936C442.762 501.106 443.017 499.727 443.017 499.727Z" fill="#EBEBEB"/>
<path d="M613.299 359.007C613.299 359.007 571.346 495.607 520.764 484.505L521.603 478.062C521.603 478.062 560.648 484.55 606.601 358.872L613.299 359.007Z" fill="#1A8CF7"/>
<path d="M524.375 482.961C524.576 497.185 527.363 511.253 532.6 524.479C534.098 528.315 536.106 532.36 539.822 534.158C543.538 535.956 547.853 535.012 551.808 533.933C561.605 531.23 571.162 527.723 580.381 523.445C583.752 521.872 587.303 519.984 589.026 516.688C591.094 512.747 590 507.968 588.816 503.683C585.041 489.928 580.8 476.304 576.096 462.809C575.122 460.007 570.612 449.16 570.612 449.16" fill="#1A8CF7"/>
<path d="M575.646 465.386C575.688 465.629 575.688 465.877 575.646 466.12C575.646 466.6 575.646 467.304 575.511 468.203C575.261 470.762 574.785 473.294 574.088 475.769C573.056 479.474 571.486 483.008 569.428 486.257C566.893 490.236 563.543 493.632 559.599 496.221C555.661 498.841 551.127 500.428 546.414 500.836C542.571 501.13 538.71 500.557 535.117 499.158C532.704 498.222 530.469 496.879 528.51 495.187C527.98 494.72 527.479 494.219 527.012 493.689C526.839 493.518 526.688 493.327 526.562 493.12C526.562 493.12 527.296 493.809 528.69 494.933C530.689 496.498 532.918 497.747 535.297 498.633C538.827 499.924 542.594 500.435 546.34 500.132C550.92 499.713 555.325 498.169 559.165 495.637C563.016 493.111 566.297 489.809 568.799 485.943C570.847 482.78 572.441 479.346 573.534 475.739C574.27 473.286 574.826 470.782 575.197 468.248C575.511 466.3 575.586 465.386 575.646 465.386Z" fill="#263238"/>
<path d="M555.749 503.293C555.498 501.123 555.498 498.931 555.749 496.761C555.768 494.573 556.045 492.396 556.573 490.273C556.828 492.443 556.828 494.635 556.573 496.805C556.557 498.993 556.281 501.171 555.749 503.293Z" fill="#263238"/>
<path d="M102.124 532.809C113.032 536.615 127.265 533.214 136.585 526.397C145.904 519.579 152.632 509.811 158.595 499.907C161.127 495.682 163.614 491.277 164.408 486.422C165.202 481.568 164.034 476.084 160.258 472.937C154.4 467.993 145.41 470.495 138.742 474.301C128.352 480.353 119.59 488.842 113.21 499.035C106.831 509.228 103.026 520.819 102.124 532.809Z" fill="#1A8CF7"/>
<path d="M113.841 558.925C120.388 567.57 131.641 571.421 142.488 571.915C153.336 572.41 164.034 569.428 174.162 565.532C177.833 564.124 181.849 562.191 183.152 558.475C183.552 557.035 183.586 555.517 183.251 554.06C182.916 552.602 182.223 551.252 181.234 550.13C179.233 547.904 176.725 546.192 173.923 545.141C163.769 541.095 152.569 540.489 142.039 543.417C131.551 546.129 122.396 552.212 113.886 558.925" fill="#1A8CF7"/>
<path d="M101.959 486.063C110.949 486.242 117.826 478.331 121.917 470.271C127.601 459.009 129.488 446.21 127.296 433.787C126.472 429.172 124.733 424.198 120.598 421.98C116.463 419.763 110.934 421.201 107.413 424.423C103.892 427.644 102.049 432.214 100.551 436.769C95.6965 452.456 96.7453 470.48 101.944 486.063" fill="#1A8CF7"/>
<path d="M72.2932 536.016C87.6957 509.811 90.2727 477.747 81.1631 448.74C79.6648 444.035 76.9079 438.641 71.9785 438.327C66.5247 437.982 63.1086 444.065 61.6103 449.309C56.3213 467.738 57.445 487.291 58.6137 506.424C59.3329 518.201 63.3783 528.285 72.2932 536.016Z" fill="#1A8CF7"/>
<path d="M56.2762 546.804C53.4083 537.824 48.5623 529.601 42.0953 522.743C35.6282 515.884 27.7047 510.564 18.9087 507.174C14.8183 505.675 9.61924 504.761 6.56271 507.878C3.50619 510.994 4.49506 516.088 6.41288 519.864C9.51436 526.067 14.5486 531.041 19.5679 535.806C24.0628 540.151 28.8574 544.511 34.6408 547.028C40.4242 549.545 51.0022 550.19 56.2762 546.759" fill="#1A8CF7"/>
<path d="M151.763 479.47L151.493 479.71L150.654 480.354L147.433 482.766L145.095 484.489C144.241 485.134 143.372 485.898 142.398 486.677C140.495 488.265 138.248 489.988 135.971 492.146L132.345 495.442C131.086 496.596 129.888 497.899 128.569 499.188C125.917 501.735 123.355 504.716 120.598 507.788C114.788 514.606 109.48 521.837 104.716 529.423C100.061 537.086 95.9603 545.073 92.4451 553.321C90.9468 557.172 89.4485 560.813 88.3248 564.304C87.7554 566.042 87.1261 567.72 86.6617 569.353L85.3282 574.073C84.4142 577.069 83.8299 579.856 83.3204 582.268C83.0508 583.482 82.7661 584.606 82.5563 585.639L82.0619 588.516C81.7622 590.194 81.5225 591.513 81.3427 592.472C81.2678 592.891 81.1929 593.236 81.1479 593.505C81.1303 593.625 81.0949 593.741 81.043 593.85C81.0364 593.73 81.0364 593.61 81.043 593.49C81.043 593.221 81.088 592.876 81.1779 592.457C81.3127 591.483 81.5075 590.149 81.7472 588.471C81.8821 587.587 82.0319 586.628 82.1967 585.579C82.3615 584.531 82.6462 583.407 82.8859 582.178C83.4253 579.751 83.9198 576.949 84.8038 573.938C85.2083 572.439 85.6428 570.836 86.0923 569.188C86.5418 567.54 87.1561 565.862 87.7254 564.109C88.8042 560.573 90.3025 556.932 91.8008 553.066C98.669 536.394 108.203 520.95 120.029 507.338C122.816 504.267 125.408 501.345 128.09 498.768C129.408 497.48 130.637 496.176 131.895 495.037L135.581 491.756C137.873 489.614 140.076 487.92 142.084 486.362C143.073 485.583 143.957 484.864 144.826 484.22L147.208 482.527L150.519 480.219L151.388 479.635C151.643 479.515 151.748 479.455 151.763 479.47Z" fill="#263238"/>
<path d="M172.155 552.123C171.795 552.095 171.439 552.035 171.091 551.943C170.402 551.823 169.413 551.553 168.094 551.343C154.065 548.551 139.549 549.494 125.999 554.077C112.449 558.661 100.341 566.724 90.887 577.459C88.3954 580.259 86.093 583.222 83.9949 586.329C83.2158 587.422 82.7063 588.306 82.3168 588.891C82.1396 589.203 81.9285 589.494 81.6875 589.76C81.8285 589.433 81.9938 589.118 82.1819 588.816C82.5415 588.217 83.021 587.318 83.7551 586.179C85.7712 583.015 88.0251 580.01 90.4975 577.189C98.6441 567.701 108.902 560.255 120.447 555.449C131.993 550.643 144.504 548.611 156.977 549.516C160.738 549.767 164.474 550.303 168.154 551.119C169.458 551.388 170.447 551.688 171.151 551.868C171.493 551.919 171.829 552.005 172.155 552.123Z" fill="#263238"/>
<path d="M115.279 432.424C115.279 432.424 115.279 432.558 115.279 432.828C115.279 433.098 115.129 433.517 115.025 434.012C114.785 435.091 114.44 436.604 114.021 438.507C113.137 442.417 111.773 448.066 110.08 454.988C106.679 468.937 101.75 488.145 96.5954 509.436C94.0483 520.104 91.741 530.277 89.7482 539.552C87.7555 548.826 86.1223 557.217 84.8937 564.289C84.2195 567.81 83.7251 571.016 83.2456 573.833C82.7661 576.65 82.3916 579.062 82.1069 581.055C81.8222 583.047 81.5675 584.531 81.3877 585.624C81.3128 586.104 81.2379 586.494 81.1929 586.808C81.1734 586.947 81.1383 587.082 81.0881 587.213C81.0807 587.073 81.0807 586.933 81.0881 586.793C81.0881 586.493 81.0881 586.089 81.2079 585.595C81.3577 584.501 81.5525 582.958 81.7923 581.01C82.032 579.062 82.3766 576.515 82.8111 573.773C83.2456 571.031 83.7251 567.78 84.3094 564.199C85.4781 557.112 87.0962 548.706 89.0141 539.417C90.9319 530.128 93.2692 519.939 95.8163 509.271C100.955 487.98 105.975 468.817 109.481 454.868C111.234 447.946 112.657 442.327 113.646 438.387C114.141 436.484 114.515 434.986 114.8 433.892L115.114 432.738C115.158 432.628 115.213 432.522 115.279 432.424Z" fill="#263238"/>
<path d="M79.9042 585.25C79.8652 585.148 79.8351 585.043 79.8143 584.935L79.5895 583.991C79.4097 583.092 79.155 581.879 78.8404 580.336C78.1811 577.159 77.3421 572.559 76.3382 566.851C74.3605 555.404 72.0831 539.567 70.5848 521.947C69.8806 513.137 69.491 504.731 69.3262 497.075C69.1614 489.419 69.3262 482.512 69.506 476.728C69.506 473.837 69.7607 471.229 69.8806 468.937C70.0004 466.645 70.1652 464.667 70.3151 463.049C70.4649 461.431 70.5698 460.247 70.6597 459.333C70.6597 458.943 70.6597 458.629 70.7646 458.374C70.7505 458.265 70.7505 458.154 70.7646 458.044C70.7803 458.154 70.7803 458.265 70.7646 458.374C70.7646 458.644 70.7646 458.958 70.7646 459.348C70.7646 460.262 70.6447 461.506 70.5548 463.064C70.4649 464.622 70.3301 466.66 70.2551 468.952C70.1802 471.244 70.0004 473.851 69.9705 476.743C69.7907 482.527 69.7757 489.419 69.9705 497.06C70.1652 504.701 70.5848 513.092 71.289 521.887C72.7873 539.477 74.9748 555.299 76.8327 566.716C77.7466 572.424 78.5407 577.039 79.0951 580.201C79.3648 581.699 79.5745 582.972 79.7244 583.871C79.7244 584.246 79.8293 584.561 79.8742 584.83C79.9217 584.965 79.9321 585.11 79.9042 585.25Z" fill="#263238"/>
<path d="M81.0728 588.516C80.9199 588.227 80.7897 587.926 80.6833 587.617C80.4136 586.943 80.0839 586.119 79.6644 584.98C79.4397 584.396 79.1999 583.767 78.9452 583.062C78.6905 582.358 78.301 581.564 77.9564 580.86L76.8177 578.313C76.4281 577.399 75.9037 576.5 75.4242 575.511C74.9448 574.522 74.3904 573.518 73.9259 572.514C73.4615 571.51 72.6973 570.417 72.0531 569.293C70.8095 567.046 69.2063 564.798 67.6631 562.341C64.084 557.184 60.212 552.236 56.0662 547.523C51.863 542.857 47.4222 538.411 42.7614 534.203C40.5439 532.33 38.5212 530.472 36.4685 528.899L33.5618 526.577L30.79 524.539C29.0369 523.205 27.4038 522.097 25.9505 521.138C24.4971 520.179 23.2685 519.31 22.2197 518.681L19.8374 517.182C19.5425 517.031 19.2701 516.839 19.0283 516.613C19.3291 516.74 19.6196 516.89 19.8973 517.062L22.3695 518.456C23.4333 519.055 24.7219 519.849 26.1752 520.808C27.6285 521.767 29.3216 522.831 31.0896 524.134L33.8914 526.142L36.888 528.449C38.9557 529.948 41.0083 531.851 43.2408 533.708C47.9806 537.904 52.4825 542.361 56.7255 547.058C60.9007 551.809 64.7787 556.813 68.3373 562.041C69.8356 564.513 71.4687 566.791 72.6824 569.068L74.5402 572.335C75.0646 573.398 75.589 574.432 76.0385 575.421C76.488 576.41 77.0274 577.339 77.402 578.253C77.7766 579.167 78.1511 580.021 78.4957 580.83L79.4247 583.077C79.6644 583.787 79.8892 584.431 80.0989 585.01L80.9829 587.707C81.039 587.973 81.0691 588.244 81.0728 588.516Z" fill="#263238"/>
<path d="M146.039 509.871C146.039 509.975 144.181 509.975 141.185 510.14C133.368 510.559 125.642 512.026 118.216 514.5C115.369 515.444 113.631 516.133 113.586 515.999C113.946 515.738 114.339 515.526 114.755 515.369C115.504 515.01 116.642 514.53 118.051 513.991C121.744 512.61 125.549 511.547 129.423 510.814C133.291 510.07 137.216 509.664 141.155 509.601C142.653 509.601 143.896 509.601 144.736 509.676C145.178 509.673 145.617 509.739 146.039 509.871Z" fill="#263238"/>
<path d="M157.666 566.611C155.976 563.164 153.845 559.951 151.328 557.052C148.648 554.331 145.626 551.969 142.338 550.025C143.446 550.31 144.499 550.776 145.455 551.403C150.288 554.187 154.168 558.365 156.587 563.39C157.111 564.401 157.475 565.488 157.666 566.611Z" fill="#263238"/>
<path d="M118.051 453.714C118.186 453.879 115.354 456.711 112.267 460.487C109.181 464.262 106.963 467.634 106.784 467.514C108.054 464.794 109.71 462.271 111.698 460.022C113.499 457.623 115.639 455.498 118.051 453.714Z" fill="#263238"/>
<path d="M108.747 437.653C109.91 441.649 110.608 445.767 110.829 449.924C110.13 447.956 109.658 445.915 109.421 443.841C108.951 441.812 108.725 439.735 108.747 437.653Z" fill="#263238"/>
<path d="M79.9342 488.07C78.6566 491.332 77.1548 494.501 75.4393 497.555C73.9363 500.722 72.2141 503.781 70.2852 506.709C71.566 503.449 73.0678 500.28 74.78 497.225C76.283 494.057 78.0052 490.998 79.9342 488.07Z" fill="#263238"/>
<path d="M62.7788 470.96C64.2601 473.125 65.539 475.422 66.5995 477.822C67.8752 480.112 68.9384 482.515 69.7759 484.999C68.2946 482.833 67.0156 480.536 65.9552 478.137C64.6825 475.845 63.6194 473.443 62.7788 470.96Z" fill="#263238"/>
<path d="M37.6224 529.498C37.6224 529.708 34.521 529.109 30.7003 528.854C26.8796 528.599 23.7782 528.734 23.7632 528.524C26.0535 527.977 28.4233 527.846 30.7602 528.135C33.1106 528.177 35.4345 528.639 37.6224 529.498Z" fill="#263238"/>
<path d="M54.793 581.264L63.3632 626.348C63.6384 627.792 64.4083 629.095 65.5404 630.033C66.6725 630.971 68.096 631.485 69.5662 631.487H94.9024C96.3993 631.486 97.8472 630.954 98.9885 629.986C100.13 629.017 100.891 627.675 101.135 626.198L108.627 581.249L54.793 581.264Z" fill="#263238"/>
<path d="M57.5798 595.918H106.02L108.582 581.264H54.793L57.5798 595.918Z" fill="#455A64"/>
<path d="M57.5796 595.918L58.5984 601.267H105.27L106.02 595.918H57.5796Z" fill="#FAFAFA"/>
</svg>
